<svg id="svg366558" xmlns="http://www.w3.org/2000/svg" viewBox="0 0 354.11 354.11"><circle cx="177.05" cy="177.05" r="177.05" fill="#0d4cab"/><path d="M481.08,202.13a13.14,13.14,0,0,0,2.53,1.05c7.81,1.59,15.76,2.67,23.43,4.77a122.7,122.7,0,0,1,29.46,12.69,137.87,137.87,0,0,1,48.86,47.75A133.82,133.82,0,0,1,598.92,298a128,128,0,0,1,5.6,25.87,10.44,10.44,0,0,0,1.09,2.75V354a10.77,10.77,0,0,0-1.07,2.77,120.19,120.19,0,0,1-6.12,27.63A139.23,139.23,0,0,1,536.36,460a116.79,116.79,0,0,1-31.25,13,170,170,0,0,1-22.49,4.25c-8.77.89-17.71,1.52-26.46.81a138.74,138.74,0,0,1-114.78-81.07,147.15,147.15,0,0,1-11.25-40.27,128.68,128.68,0,0,1-.58-28.54c.7-8.49,2.84-16.91,4.9-25.22,3.76-15.15,10.62-29,19.55-41.73a137.6,137.6,0,0,1,50.82-44.21,142.22,142.22,0,0,1,33.1-11.87c4-.92,8.16-1.25,12.22-2a24.64,24.64,0,0,0,3.56-1.16ZM467.46,475.49c75.06-.64,134.9-60.32,135-134.89a135.1,135.1,0,1,0-270.2.18C332.48,415.4,392.48,475,467.46,475.49Z" transform="translate(-290.26 -163.24)" fill="#fff"/><path d="M541.19,423.82c-2.51.78-4.53-.51-6.59-2.58Q502.58,389,470.4,357c-2.77-2.77-2.77-2.78-5.45-.11q-24.81,24.81-49.67,49.58c-1.58,1.56-3.77,2.5-5.66,3.73a20.67,20.67,0,0,0-3.15,2.17q-4.92,4.72-9.68,9.63c-1.55,1.6-2.85,1.86-4.52.11q-5.16-5.4-10.56-10.59c-1.61-1.56-1.55-2.86,0-4.37a118.65,118.65,0,0,0,8.7-8.82c1.86-2.25,3-5.07,4.46-7.66a1.35,1.35,0,0,0,0-1.19c-1.77-2.14-.49-3.56,1-5.06q15.81-15.76,31.58-31.56c1.32-1.32,2.5-2.64,4.62-1.11.46.33,1.9-.05,2.45-.57,4.51-4.36,8.91-8.85,13.38-13.25,1.73-1.7.63-2.78-.61-4-13.82-13.79-27.44-27.79-41.51-41.31a55.89,55.89,0,0,1-12.74-18.75c-2-4.72-4.35-9.32-6.42-14a10.31,10.31,0,0,1-.34-3.13c1.06,0,2.27-.35,3.15,0q12.22,5.43,24.34,11.12a13.18,13.18,0,0,1,3.4,2.73q23.09,23,46.13,46.14c2.89,2.89,2.94,2.88,5.87-.06C484.1,301.74,498.93,286.77,514,272c2-2,5.09-3,7.67-4.46a65.6,65.6,0,0,0,5.68-3.35c1.36-1,2.37-2.21,4.29-1,.51.32,1.76-.22,2.5-.65,2.37-1.37,4.55-3.15,7-4.23,1.3-.56,3.08,0,4.64.05,0,1.47.25,3.07-.24,4.38a27.8,27.8,0,0,1-3,5.34c-1.13,1.7-2.76,3.14-1.37,5.53.24.41-.33,1.42-.69,2.06q-2.43,4.32-4.95,8.57c-1.12,1.89-2,4-3.53,5.55q-22.61,22.83-45.43,45.43c-2,2-1.63,3,.08,4.73q32.23,32.14,64.38,64.38a10.31,10.31,0,0,1-.13,14.92C546.68,423.46,546.68,423.46,541.19,423.82ZM409.53,284l-.75-.43c.62.68,1.21,1.38,1.85,2q18.92,19,37.85,37.9L543,417.92c2.24,2.24,2.54,2.22,4.76,0,2.36-2.36,2.39-2.7.13-5Q535.42,400.49,522.94,388q-53.64-53.61-107.29-107.2a23.86,23.86,0,0,0-2.51-1.93l.83,1.34Zm7.12,116.5c1-.78,1.45-1.12,1.87-1.53q22.59-22.57,45.18-45.14c1.41-1.41,1.18-2.36-.12-3.62-3.27-3.16-6.52-6.36-9.65-9.66-1.57-1.66-2.69-1.51-4.24,0q-22.11,22.21-44.3,44.35c-.31.3-.77.59-.84.95-.14.66-.34,1.65,0,2C408.52,392.1,412.59,396.26,416.65,400.45Zm65.05-65c.87-.71,1.16-.91,1.4-1.14q20.88-20.87,41.78-41.71c1.27-1.26,1.14-2.25-.11-3.47-3.14-3-6.17-6.19-9.28-9.26-2.45-2.42-2.67-2.41-5.15.07l-39.62,39.63c-.37.37-.92.7-1,1.13-.18.71-.39,1.81,0,2.21C473.59,327.1,477.61,331.2,481.7,335.44Zm61.07,84.71c-1-1.17-1.79-2.16-2.66-3q-26.72-26.75-53.46-53.46L409.1,286.1c-2.37-2.38-2.65-2.36-4.54.33.86,1,1.69,2.05,2.65,3q19,19,38.1,38.05Q491,373.23,536.74,419C538.35,420.6,539.94,421.5,542.77,420.15Zm-128.41-144L550.29,412.09c1.1-2,.4-3.69-1.34-5.41q-14.67-14.55-29.24-29.2-50.4-50.4-100.8-100.8C417.4,275.17,416,273.63,414.36,276.17Zm-10,133.27a6.63,6.63,0,0,0-.76-1.32c-2.58-2.63-5.12-5.33-7.89-7.76-.52-.46-2.32-.22-3,.34-2.51,2.21-4.74,4.73-7.17,7-1.24,1.17-1.16,2.13,0,3.24,2.45,2.41,4.89,4.82,7.29,7.27,1.1,1.13,2,1.31,3.23.06,2.37-2.48,4.86-4.85,7.26-7.29A9.48,9.48,0,0,0,404.38,409.44Zm8.7-136.81.84-1.13c-.76-.39-1.51-.82-2.28-1.18-5.07-2.34-10.11-4.72-15.22-6.93-.88-.38-2.69-.36-3,.14a4,4,0,0,0-.08,3.29c2.11,4.88,4.38,9.69,6.72,14.46.36.72,1.35,1.14,2.05,1.69a7.75,7.75,0,0,0,1.29-1.91c.41-1.38,1-2,2.56-1.66,3.32.73,3.9.14,3.53-3.44-.18-1.76.12-2.89,2.2-2.86A4.24,4.24,0,0,0,413.08,272.63Zm118.67,11.16c.59-.83.81-1.09,1-1.39,1.4-2.61,2.86-5.2,4.12-7.88a2.3,2.3,0,0,0-.53-2,54.06,54.06,0,0,0-4.92-4.89,2.83,2.83,0,0,0-2.44-.39c-2.26,1-4.41,2.15-6.58,3.29-1.18.62-2.12,1.33-.77,2.71Zm-116.26,118a11.54,11.54,0,0,0-1.14-1.72c-3.42-3.47-6.88-6.91-10.32-10.37-1.22-1.22-2.3-1.13-3.53.09s-1.41,2.25-.15,3.49c3.47,3.45,6.9,6.94,10.43,10.32a2.55,2.55,0,0,0,2.2.65A12.62,12.62,0,0,0,415.49,401.75ZM527.31,289.86c1.66-1.49,3.71-2.44,2.2-4.11-3.57-3.94-7.42-7.62-11.31-11.24-.43-.41-2,0-2.78.53a2.35,2.35,0,0,0-.1,2.29C519.2,281.53,523.21,285.62,527.31,289.86ZM408.07,406.78,397.3,395.32C396.77,397.76,406.38,407.24,408.07,406.78Z" transform="translate(-290.26 -163.24)" fill="#fff"/></svg>