<svg id="Layer_1" data-name="Layer 1" xmlns="http://www.w3.org/2000/svg" viewBox="0 0 363.03 73.74"><path d="M279.58,398c-1.67-.66-3.34-1.33-5-2-12.06-4.68-19.62-17.78-17.47-30.32,2.4-14,13.52-23.89,27-24,12.79-.12,24,9.17,26.88,22.31,1.73,7.84.38,9.55-7.6,9.56q-15.93,0-31.86,0h-5.32c.9,12.4,17.18,21.41,29.55,11.77.91-.71,1.57-2,2.55-2.29,2.1-.53,5-1.49,6.38-.56,2.57,1.68,1.64,4.68-.54,6.3-3.94,2.91-8.2,5.4-12.37,8a18.52,18.52,0,0,1-3.19,1.24ZM266,366.15h36.47c-2.29-9.95-9.59-16.08-18.36-16S267.92,356.47,266,366.15Z" transform="translate(-148.94 -324.23)" fill="#231f20"/><path d="M148.94,343.2c2.18-9.18,7-15.89,16.7-18.3,11.12-2.76,23,3.25,26.68,13.69,1,2.7,1.85,5.85-1.73,7.25s-4.88-1.21-6.1-4.06c-3.54-8.24-11.88-11.4-19.73-7.65a11.27,11.27,0,0,0-6.88,10.63c-.07,4.52,3,6.88,6.69,8.36,5.68,2.28,11.59,4,17.24,6.34,5.93,2.45,11.24,5.76,13,12.64,2.51,9.69-2.72,19.71-12.49,23.74-1.82.75-3.66,1.43-5.49,2.14h-9a28.16,28.16,0,0,1-18.95-16.93v-4c4.67-4,6.55-3.49,8.9,2.33a15.92,15.92,0,0,0,23.95,7.26c7.26-4.92,6.89-14.59-1-18.36a129.58,129.58,0,0,0-14.4-5.29c-8.14-2.76-14.91-6.95-17.48-15.82Z" transform="translate(-148.94 -324.23)" fill="#231f20"/><path d="M366.34,398c-5.24-2.52-10.23-5.28-12.79-11-1.16-2.6-1.38-5,1.35-6.43s4.63-.15,6.19,2.3c4.08,6.38,10.42,8.56,15.86,5,2.06-1.36,4-4.3,4.18-6.64.13-1.95-2-4.79-4-6-3.64-2.21-7.9-3.37-11.78-5.23a35.65,35.65,0,0,1-7.59-4.6c-4.52-3.8-5.44-9.64-2.79-14.87,5.43-10.71,23.27-11.74,29.86-1.71,1.63,2.48,2.89,5.27-.21,7.44-2.86,2-4.55-.06-6.59-2.15a12.94,12.94,0,0,0-7.07-3.8c-3.71-.44-7.58.88-8.6,5.09-1,4,2.66,5.3,5.46,6.59,3.9,1.8,8,3.16,11.92,5,6.12,2.81,10.47,7.08,10.26,14.4-.2,7.07-4.77,12.79-12.06,15.45-.91.33-1.77.78-2.65,1.18Z" transform="translate(-148.94 -324.23)" fill="#231f20"/><path d="M339.41,398c-12.77-4.56-17.57-13.79-17-27,.56-13.08.14-26.21.11-39.32,0-3,0-6,4-6.13,4.28-.13,4.5,3.05,4.5,6.21v11.58c3,0,5.66-.42,8.13.14,1.73.4,3.16,2.13,4.73,3.26-1.57,1.35-2.95,3.34-4.76,3.89-2.26.68-4.88.16-7.63.16,0,10-.67,19.62.37,29.05.36,3.24,4.51,6.77,7.78,8.82,5,3.14,5.76,4.71,1.81,9.37Z" transform="translate(-148.94 -324.23)" fill="#231f20"/><path d="M410.82,345c6.61-1,12.89-3.08,19-2.61,11.3.87,19.86,10.9,20.21,22.28.27,8.78.05,17.58.13,26.37,0,3-.61,5.6-4,5.68-3.83.09-4.29-2.89-4.32-5.93-.09-8.95.18-17.92-.44-26.84a15.2,15.2,0,0,0-14.09-13.78,15.71,15.71,0,0,0-15.77,11.28,21.47,21.47,0,0,0-.65,5.89c-.08,7.63-.05,15.26,0,22.88,0,3.19-.38,6.5-4.38,6.48s-4.14-3.4-4.14-6.55q.06-29.1,0-58.21c0-3.12,0-6.47,4.2-6.45s4.29,3.39,4.3,6.5C410.84,336.7,410.82,341.45,410.82,345Z" transform="translate(-148.94 -324.23)" fill="#231f20"/><path d="M472.4,347c6.43-3.93,12.3-6.14,19.08-5,11.23,1.91,19.91,11.18,20.28,22.56.3,8.94.3,17.92-.09,26.86-.08,1.82-2.26,4.75-3.87,5-3.28.62-4.37-2.25-4.4-5.2-.07-8.79.23-17.6-.2-26.37-.58-11.66-12.94-18.45-22.76-12.71-5.48,3.2-8,8.23-8,14.51,0,8,0,15.92,0,23.88,0,3-.49,6.06-4.25,6.05s-4.1-3-4.1-6.08q.06-29.61,0-59.22c0-3,.3-6,4.21-5.94s4.11,3.16,4.12,6.11C472.41,336.36,472.4,341.16,472.4,347Z" transform="translate(-148.94 -324.23)" fill="#231f20"/><path d="M208,361.1c0-9.79,0-19.58,0-29.37,0-3.2.29-6.4,4.46-6.28,3.78.11,4.13,3.14,4.13,6.15q0,29.37,0,58.74c0,3.26-.53,6.42-4.51,6.32-3.67-.09-4.11-3.14-4.1-6.19C208,380.68,208,370.89,208,361.1Z" transform="translate(-148.94 -324.23)" fill="#231f20"/><path d="M228.79,367.58c6.72,7.05,13.1,13.77,19.51,20.46,2.19,2.29,4.2,4.81,1.16,7.61-2.86,2.63-5.11.47-7.16-1.68-7.08-7.44-14.14-14.9-21.3-22.25-2.74-2.82-2.77-5.27-.09-8.15,5.89-6.29,11.64-12.69,17.41-19.09,2.07-2.28,4.42-4.09,7.17-1.51s1,5.07-1,7.32C239.36,355.9,234.26,361.55,228.79,367.58Z" transform="translate(-148.94 -324.23)" fill="#231f20"/></svg>