<svg id="Layer_1" data-name="Layer 1" xmlns="http://www.w3.org/2000/svg" viewBox="0 0 220.27 220.27"><circle cx="110.14" cy="110.14" r="110.14"/><path d="M383.13,447.54c-6.05-3.54-13.09-6.06-18-10.79-26.23-25.4-51.94-51.35-77.83-77.11-1.2-1.19-2.35-2.44-3.62-3.56-5.84-5.17-13.35-5.41-18.31-.63-5.17,5-5.39,13.26.13,18.89,11.84,12.09,24,23.9,36,35.84,2.4,2.39,4.89,4.72,7,7.32,7.8,9.49,8.19,22.56.64,32.14a62.33,62.33,0,0,1-11.71,11.8c-2,1.5-5.89.53-8.93.68,0-3.23-.89-6.88.32-9.59,1.27-2.88,4.59-4.84,7-7.26,7.79-7.94,7.8-14.53-.13-22.52-13.3-13.38-26.83-26.54-40-40.08-7.55-7.79-9.53-17.28-5.69-27.51,3.68-9.79,11.45-14.8,21.49-16.11,9.07-1.18,16.37,2.64,22.71,9q37.91,38.06,76,75.92c1.37,1.37,2.72,2.77,4.13,4.09,6.33,5.87,13.93,6.19,19.42.85,5.82-5.64,5.79-13.61-.41-19.89-12.92-13.08-26-26-39-39-5.65-5.64-11.4-11.19-16.89-17-10.53-11.08-10.53-26.79-.16-37.08s26-10.27,37.07.54c15.38,15.06,30.5,30.38,45.78,45.55,3.27,3.25,5.33,6.9,1.55,10.65s-7.33,1.86-10.64-1.46c-14.85-14.93-29.58-30-44.85-44.44-3.12-2.94-8.61-5.27-12.65-4.8-3.65.43-7.87,4.46-9.94,8-3,5.1-.6,10.24,3.52,14.36q25.69,25.63,51.33,51.32c2.05,2.05,4.24,4,6.09,6.21,7.19,8.6,8.74,18.16,4.11,28.42a26.84,26.84,0,0,1-24.43,15.36Z" transform="translate(-225.77 -275.17)" fill="#fff"/></svg>