<svg id="Layer_1" data-name="Layer 1" xmlns="http://www.w3.org/2000/svg" viewBox="0 0 242.56 242.56"><circle cx="121.28" cy="121.28" r="121.28"/><path d="M308.77,358.2c-4.65-2.72-10.07-4.65-13.83-8.29-20.17-19.53-39.93-39.48-59.84-59.29-.92-.92-1.8-1.87-2.78-2.74-4.49-4-10.26-4.16-14.08-.48a10.1,10.1,0,0,0,.1,14.52c9.11,9.3,18.44,18.37,27.67,27.56a77.56,77.56,0,0,1,5.4,5.63,19.46,19.46,0,0,1,.49,24.71,47.73,47.73,0,0,1-9,9.07c-1.57,1.15-4.53.41-6.87.52,0-2.49-.68-5.29.24-7.38s3.54-3.72,5.36-5.58c6-6.1,6-11.16-.1-17.3-10.22-10.3-20.63-20.41-30.73-30.83-5.81-6-7.33-13.28-4.38-21.14,2.83-7.53,8.81-11.38,16.53-12.39,7-.9,12.58,2,17.46,6.92q29.13,29.25,58.41,58.37c1.05,1.05,2.08,2.13,3.17,3.14,4.86,4.51,10.71,4.76,14.93.66,4.47-4.34,4.45-10.47-.32-15.3-9.93-10.05-20-20-30-30-4.34-4.34-8.76-8.6-13-13.05-8.1-8.52-8.09-20.59-.12-28.51s20-7.89,28.5.42c11.82,11.58,23.45,23.36,35.2,35,2.52,2.5,4.1,5.3,1.19,8.19s-5.64,1.43-8.18-1.13c-11.41-11.47-22.74-23-34.49-34.16-2.39-2.26-6.61-4.05-9.71-3.69-2.82.33-6.06,3.43-7.65,6.15-2.28,3.92-.47,7.87,2.71,11q19.74,19.71,39.46,39.46c1.58,1.57,3.26,3.07,4.68,4.77,5.53,6.61,6.72,14,3.16,21.85a20.62,20.62,0,0,1-18.78,11.81Z" transform="translate(-151.19 -212.24)" fill="#fff"/><path d="M249.84,415.88l-2.23-.88a12.53,12.53,0,0,1-7.77-13.49,12.12,12.12,0,0,1,24-.76c.77,3.49.17,4.25-3.38,4.26H243.87c.4,5.52,7.65,9.52,13.14,5.24.41-.32.7-.91,1.14-1,.93-.24,2.2-.67,2.84-.26,1.14.75.73,2.09-.25,2.81-1.75,1.29-3.64,2.4-5.5,3.55a8.25,8.25,0,0,1-1.41.55Zm-6.05-14.16H260c-1-4.42-4.26-7.15-8.16-7.14S244.65,397.42,243.79,401.72Z" transform="translate(-151.19 -212.24)" fill="#fff"/><path d="M191.73,391.52c1-4.09,3.12-7.07,7.43-8.14A10.06,10.06,0,0,1,211,389.46c.42,1.21.82,2.61-.77,3.23s-2.17-.54-2.72-1.81a6.27,6.27,0,0,0-8.77-3.4,5,5,0,0,0-3.06,4.73c0,2,1.34,3.06,3,3.71,2.53,1,5.16,1.79,7.67,2.83s5,2.56,5.79,5.62a9,9,0,0,1-5.55,10.56c-.81.33-1.63.63-2.44.95h-4a12.51,12.51,0,0,1-8.43-7.53v-1.77c2.08-1.77,2.91-1.56,4,1a7.08,7.08,0,0,0,10.65,3.23c3.23-2.19,3.06-6.49-.43-8.16a56.94,56.94,0,0,0-6.4-2.36c-3.63-1.22-6.63-3.09-7.78-7Z" transform="translate(-151.19 -212.24)" fill="#fff"/><path d="M288.43,415.88c-2.34-1.12-4.55-2.35-5.69-4.89-.52-1.16-.62-2.21.6-2.86s2.05-.06,2.75,1c1.81,2.83,4.63,3.8,7.06,2.2a4.47,4.47,0,0,0,1.86-2.95,3.75,3.75,0,0,0-1.77-2.65c-1.62-1-3.52-1.5-5.24-2.32a16.13,16.13,0,0,1-3.38-2.05,5.26,5.26,0,0,1-1.24-6.62c2.42-4.76,10.35-5.22,13.28-.75.73,1.1,1.29,2.34-.09,3.3s-2,0-2.93-.95a5.72,5.72,0,0,0-3.15-1.69c-1.64-.2-3.37.39-3.82,2.26s1.18,2.36,2.43,2.93c1.73.8,3.56,1.41,5.3,2.21,2.72,1.25,4.66,3.15,4.56,6.4s-2.12,5.69-5.36,6.87c-.41.15-.79.35-1.18.53Z" transform="translate(-151.19 -212.24)" fill="#fff"/><path d="M276.45,415.88c-5.68-2-7.82-6.14-7.57-12s.07-11.66.05-17.49c0-1.32,0-2.67,1.76-2.73s2,1.36,2,2.76v5.16a17.15,17.15,0,0,1,3.61.06c.77.17,1.41.94,2.11,1.45-.7.6-1.31,1.48-2.12,1.73a12.62,12.62,0,0,1-3.39.07c0,4.45-.3,8.73.16,12.92.16,1.44,2,3,3.46,3.92,2.23,1.4,2.56,2.1.81,4.17Z" transform="translate(-151.19 -212.24)" fill="#fff"/><path d="M308.21,392.3c2.94-.45,5.73-1.37,8.44-1.16,5,.38,8.83,4.84,9,9.91.12,3.9,0,7.82.06,11.72,0,1.32-.27,2.5-1.79,2.53-1.7,0-1.9-1.28-1.92-2.63,0-4,.08-8-.19-11.94a6.76,6.76,0,0,0-6.27-6.13,7,7,0,0,0-7,5,9.25,9.25,0,0,0-.29,2.62c0,3.4,0,6.79,0,10.18,0,1.42-.17,2.89-1.94,2.88s-1.85-1.51-1.84-2.91q0-12.94,0-25.89c0-1.39,0-2.88,1.87-2.87s1.9,1.51,1.91,2.89C308.22,388.62,308.21,390.73,308.21,392.3Z" transform="translate(-151.19 -212.24)" fill="#fff"/><path d="M335.6,393.22c2.86-1.75,5.47-2.73,8.49-2.21a10.66,10.66,0,0,1,9,10c.13,4,.13,8-.05,11.94a3,3,0,0,1-1.72,2.25c-1.45.28-1.94-1-1.95-2.31,0-3.91.1-7.83-.09-11.73a6.76,6.76,0,0,0-10.12-5.66,7,7,0,0,0-3.57,6.46c0,3.54,0,7.08,0,10.62,0,1.35-.22,2.69-1.89,2.69s-1.83-1.34-1.82-2.7q0-13.17,0-26.34c0-1.36.13-2.67,1.87-2.64s1.83,1.4,1.84,2.72Z" transform="translate(-151.19 -212.24)" fill="#fff"/><path d="M218,399.48c0-4.36,0-8.71,0-13.07,0-1.42.13-2.84,2-2.79,1.68.05,1.84,1.4,1.84,2.74q0,13.06,0,26.12c0,1.45-.23,2.86-2,2.81S218,413.9,218,412.54C218,408.18,218,403.83,218,399.48Z" transform="translate(-151.19 -212.24)" fill="#fff"/><path d="M227.25,402.36c3,3.13,5.82,6.12,8.67,9.1,1,1,1.87,2.14.52,3.38s-2.27.21-3.18-.74c-3.15-3.31-6.29-6.63-9.48-9.9a2.26,2.26,0,0,1,0-3.62c2.62-2.8,5.18-5.65,7.75-8.49.91-1,2-1.83,3.18-.68s.47,2.26-.44,3.26C232,397.17,229.68,399.68,227.25,402.36Z" transform="translate(-151.19 -212.24)" fill="#fff"/></svg>