<svg id="Layer_1" data-name="Layer 1" xmlns="http://www.w3.org/2000/svg" viewBox="0 0 120.53 105.69"><path d="M253.3,455.36c-4.16-2.43-9-4.16-12.35-7.41-18-17.43-35.65-35.24-53.42-52.92-.82-.82-1.61-1.68-2.48-2.45-4-3.55-9.17-3.71-12.57-.43a9,9,0,0,0,.08,13c8.14,8.3,16.47,16.41,24.7,24.6a69.4,69.4,0,0,1,4.83,5,17.37,17.37,0,0,1,.43,22.06,43.08,43.08,0,0,1-8,8.1c-1.4,1-4.05.36-6.13.46,0-2.22-.61-4.72.22-6.58s3.15-3.32,4.78-5c5.34-5.45,5.35-10-.09-15.46-9.13-9.19-18.42-18.22-27.43-27.51-5.19-5.34-6.55-11.86-3.91-18.88,2.52-6.72,7.86-10.16,14.75-11.05,6.22-.81,11.24,1.8,15.59,6.17q26,26.12,52.14,52.11c.94.94,1.86,1.9,2.83,2.8,4.34,4,9.56,4.25,13.33.59,4-3.87,4-9.35-.28-13.65-8.87-9-17.84-17.85-26.76-26.77-3.88-3.87-7.82-7.68-11.6-11.65-7.22-7.6-7.22-18.39-.1-25.45s17.86-7.05,25.44.37c10.55,10.34,20.93,20.86,31.42,31.27,2.25,2.23,3.66,4.73,1.07,7.31s-5,1.27-7.31-1c-10.19-10.24-20.3-20.57-30.78-30.5-2.14-2-5.91-3.62-8.68-3.29-2.51.3-5.41,3.06-6.82,5.49-2,3.5-.42,7,2.41,9.86q17.63,17.59,35.23,35.22c1.41,1.41,2.91,2.74,4.18,4.26,4.94,5.9,6,12.46,2.82,19.5A18.42,18.42,0,0,1,254,454.08Z" transform="translate(-160.62 -359.79)" fill="#fff"/></svg>