<svg id="svg287906" xmlns="http://www.w3.org/2000/svg" viewBox="0 0 193 193"><circle cx="96.5" cy="96.5" r="96.5" fill="#3f5887"/><path d="M94.64,241h25.93V182.18h91.3v91.15H153.15V299.5H94.64ZM127,188.16v53h26.23V267h52.61V188.16Zm19.75,85.12H120.59V247.43H100.8v45.94h46ZM127,267.08h19.68v-19.6H127Z" transform="translate(-56.75 -144.34)" fill="#fff"/><path d="M181.93,207.68c-6.44,0-11.63,0-16.82,0-2.36,0-4.91-.34-4.65-3.14.11-1.11,2.86-2.74,4.45-2.81,7.52-.3,15.06-.06,22.59-.16,3.44-.05,5.05,1.3,5,4.83-.09,7.53,0,15.06,0,22.6,0,2.36-.38,4.9-3.16,4.61-1.12-.11-2.68-2.85-2.79-4.47-.36-5.27-.13-10.58-.13-16.91-1.83,1.62-2.93,2.51-3.93,3.5-6.12,6.09-12.16,12.25-18.35,18.26-1.67,1.62-3.35,5-6.26,2.05-2.67-2.73.5-4.38,2.06-6,6-6.17,12.18-12.22,18.27-18.34C179.23,210.71,180.17,209.6,181.93,207.68Z" transform="translate(-56.75 -144.34)" fill="#fff"/></svg>