<svg id="svg715215" xmlns="http://www.w3.org/2000/svg" viewBox="0 0 175 175"><circle cx="87.5" cy="87.5" r="87.5"/><path d="M81.28,297c-15.72-11.33-17.75-28.78-13-41,5.69-14.58,21.32-24.21,38.13-23.37,17.49.86,27.83,10.59,33.67,31.82,2.64-.2,5.31-.6,8-.59,13.11.06,23.48,11.08,23.5,24.84,0,13.46-9.37,22.71-23.18,22.81-5.72,0-11.44.13-17.15-.1-1.23-.05-2.4-1.42-3.6-2.18,1.23-.7,2.44-1.95,3.7-2,5.46-.22,10.94-.07,16.41-.1,7.68,0,14.49-2.14,17.89-9.68,3.66-8.13,1.87-15.9-3.4-22.76-5-6.45-11.89-7.65-19.48-6-2.15.46-4.23,1.27-6.75,2-.28-2.76-.38-5.33-.83-7.83-3.64-20.19-21.3-30.38-41.94-24.27-17.86,5.29-27.19,23-21.15,40.25a25.75,25.75,0,0,0,10.25,13.36c4.73,3.12,4.64,3,.69,6.87-6,5.81-11.81,11.76-17.7,17.65-.61.61-1.13,1.44-1.88,1.78a10.64,10.64,0,0,1-2.86.5c.23-1,.15-2.21.74-2.82q7.26-7.52,14.74-14.8C77.66,299.87,79.46,298.55,81.28,297Z" transform="translate(-38 -180.71)" fill="#fff"/><path d="M175.29,256c-1.46,3.87-2.73,7.84-4.49,11.57-.45.94-2.45,1.15-3.74,1.69,0-1.29-.39-2.85.18-3.83,5.21-8.93,3.89-18-3.65-24s-16.77-5.18-24.43,2.17c-.8.76-2.43.65-3.68.95.19-1.29-.08-2.94.62-3.81,5.34-6.68,15.87-9.16,24.44-6S174.51,246,175.29,256Z" transform="translate(-38 -180.71)" fill="#fff"/><path d="M100.58,296.36a25.25,25.25,0,0,1-1.7,2.1c-6.56,6.6-13.11,13.2-19.77,19.7-.7.68-2,.69-3.1,1,.32-1.14.27-2.63,1-3.37,6.48-6.67,13.07-13.24,19.7-19.75a5.77,5.77,0,0,1,2.81-1.13C99.75,294.89,100.18,295.8,100.58,296.36Z" transform="translate(-38 -180.71)" fill="#fff"/><path d="M116,296.32c-.71.86-1.28,1.66-2,2.35-6.39,6.42-12.76,12.87-19.26,19.17-.82.79-2.4.77-3.63,1.12.45-1.13.62-2.54,1.41-3.35q9.63-9.86,19.48-19.49a6.18,6.18,0,0,1,2.8-1.25C115.08,294.81,115.55,295.72,116,296.32Z" transform="translate(-38 -180.71)" fill="#fff"/><path d="M156.33,223.31a16.28,16.28,0,0,1-.07,3.7,8.55,8.55,0,0,1-1.64,2.45c-.53-.73-1.46-1.43-1.52-2.19a54.74,54.74,0,0,1,0-7.79c0-.77.95-1.49,1.47-2.24.59.79,1.47,1.5,1.69,2.38A15.12,15.12,0,0,1,156.33,223.31Z" transform="translate(-38 -180.71)" fill="#fff"/><path d="M183.93,276.74c-.78,1-1.05,1.7-1.51,1.86a1.91,1.91,0,0,1-1.67-.3,83.47,83.47,0,0,1-6.26-6.36c-.32-.38.56-1.78.88-2.71Z" transform="translate(-38 -180.71)" fill="#fff"/><path d="M138.06,232.56c-.6.87-.84,1.63-1.26,1.75a2.35,2.35,0,0,1-1.94-.27q-3.24-3-6.25-6.24a2.32,2.32,0,0,1-.22-2c.12-.36,1.28-.81,1.48-.64C132.61,227.57,135.28,230,138.06,232.56Z" transform="translate(-38 -180.71)" fill="#fff"/><path d="M180.18,227.49a16.87,16.87,0,0,1-1.44,2.37c-1.81,1.87-3.6,3.79-5.56,5.5-.57.49-1.69.36-2.56.51,0-.86-.24-2,.21-2.54a59.67,59.67,0,0,1,6.08-6C177.41,226.87,178.7,227.37,180.18,227.49Z" transform="translate(-38 -180.71)" fill="#fff"/><path d="M184.05,253.47a22.88,22.88,0,0,1-4.06-.07c-.65-.11-1.17-1-1.75-1.48.57-.52,1.12-1.45,1.72-1.48,3-.15,5.93-.13,8.88,0,.54,0,1,.83,1.56,1.27-.51.58-1,1.58-1.55,1.67a33.35,33.35,0,0,1-4.8.08Z" transform="translate(-38 -180.71)" fill="#fff"/></svg>