<svg id="svg710041" xmlns="http://www.w3.org/2000/svg" viewBox="0 0 206.85 206.85"><circle cx="103.42" cy="103.42" r="103.42" fill="#a35213"/><path d="M547.1,340.12a26.18,26.18,0,0,1-4.5.78q-67.2.08-134.4,0c-4.68,0-4.87-.3-3.19-4.66,3.35-8.67,6.8-17.31,10-26,.84-2.28,2-3.11,4.45-3.06,7,.14,14.06.05,21.63.05,0-1.54.06-2.79,0-4-.63-12.28-1.23-24.56-2-36.84-.23-3.87-.16-7.54,1.68-11.12a56.64,56.64,0,0,0,3.26-8.31c1-2.94.87-5.41-1.78-8-4.6-4.46-5.29-16.13-1.88-21.54s9.8-7.23,16.1-4.79,9.27,7.64,8,14.14c-.31,1.64-.08,3.44-.67,4.94-1.14,2.9-2.13,6.16-4.17,8.35-3.91,4.21-4.3,7.45,0,11.16a17.41,17.41,0,0,1,6.15,13.2c.08,2,0,4,0,6.55a26.68,26.68,0,0,0,3-.75c2.34-.9,4.58-2.11,7-2.79,6.89-1.94,12.13-5.79,15.4-12.25,1-2,2.74-4.14,5-2.87a7.15,7.15,0,0,1,3.11,5.3,13.54,13.54,0,0,1-2.44,7.5,38.93,38.93,0,0,1-16.73,13.55c-3.39,1.39-6.52,3.4-9.82,5.16,1.44,7,5.4,11.58,11.78,14,6,2.29,12.26,4.06,18.08,6.75,5.18,2.39,10.39,2.89,15.9,2.72s11,.12,16.49-.11c2.81-.11,4,1,4.8,3.53,2.76,8.62,5.71,17.19,8.61,25.76a21.43,21.43,0,0,0,1,2.23ZM443.79,312.26l-.56-1.65c-7.12,0-14.23.11-21.34-.06-2.43-.06-3.63.72-4.46,3-2.54,6.94-5.31,13.79-8,20.68a30.1,30.1,0,0,0-.82,2.95H542.52c-2.12-6.37-4.1-12.33-6.08-18.3-2.76-8.28-2.76-8.28-11.61-8.28H506.75c0,2.06.28,3.66-.08,5.11s-1,3.66-2.17,4.14c-4.34,1.83-8.89,4.26-13.41,4.38-18.5.49-37,.2-55.52.23-2.35,0-4.47-.43-4.84-3.13s1.62-3.51,3.75-4.41C437.67,315.58,440.69,313.83,443.79,312.26Zm23.14-26.56c-1.33.64-2.49,1.18-3.63,1.75-3.9,1.93-5.12,1.52-6.94-2.44-1.75-3.79-3.48-7.59-5.13-11.42-1.44-3.34-.83-5.16,2.55-6.59,2.69-1.13,5.58-1.8,8.39-2.69,0-8.6-4.5-12.51-16.35-13.59-1.08,4.52-3.16,9.19-3.12,13.84.11,12.64,1.16,25.26,1.75,37.9.27,5.83,1.77,7.44,7.55,7.46,8.36,0,16.72-.05,25.07.08,1.13,0,2.24,1,3.36,1.59-1.12.6-2.21,1.66-3.34,1.71-4.65.2-9.31.08-14,.08H450.74V321h4.17c10.39,0,20.78-.16,31.16.06a34.66,34.66,0,0,0,14.21-2.79c2.9-1.2,3.11-3,3.17-5.54s-.7-3.87-3.21-4.71c-6.33-2.11-12.56-4.52-18.82-6.82s-11-6.5-13.37-13C467.77,287.43,467.39,286.71,466.93,285.7Zm-6.42-59.26c-5.73.61-10.95,1.07-16.13,1.8a3.12,3.12,0,0,0-1.9,2.26c-.37,4.66,3.71,9,8.5,9.36a9,9,0,0,0,9.5-7.85C460.65,230.38,460.51,228.72,460.51,226.44Zm34.77,29.43c-5.85,6.69-7,9-5.61,11.6C495.42,263.41,497,260.31,495.28,255.87ZM453,247.71v-4.28h-4.49C447.62,247.4,447.84,247.63,453,247.71Z" transform="translate(-372.15 -172.83)" fill="#fff" stroke="#fff" stroke-miterlimit="10" stroke-width="2"/></svg>