<svg id="svg710041" xmlns="http://www.w3.org/2000/svg" viewBox="0 0 737.77 206.85"><g id="path710050"><path d="M403.34,403.76c0,28.87-22.71,42.28-47,42.28s-42.66-14-42.66-14l13.52-26.1c8.23,8.6,21.64,12.68,29.14,12.68s13.84-5.8,13.84-11.85c0-22-51.51-8.09-51.51-51.2,0-27.63,19.79-41,42-41a78.46,78.46,0,0,1,37.66,10.07L385.8,349.91s-10.51-8.42-20.29-8.42c-7.29,0-13.84,2.71-13.84,10.74C351.67,370.89,403.34,358.88,403.34,403.76Z" transform="translate(-69.62 -262.97)" fill="#fefefa"/></g><g id="path710052"><path d="M492.58,357.89H522V442.8H492.58v-7.34a38.31,38.31,0,0,1-26.07,10.44c-22.54,0-40.81-20.25-40.81-45.24s18.27-45.23,40.81-45.23a38.31,38.31,0,0,1,26.07,10.44Zm0,42.77c0-10.75-7.64-19.47-17.95-19.47S456,389.91,456,400.66s8.36,19.48,18.67,19.48S492.58,411.42,492.58,400.66Z" transform="translate(-69.62 -262.97)" fill="#fefefa"/></g><g id="path710054"><path d="M552.37,442.78V309.35h29.46V442.78Z" transform="translate(-69.62 -262.97)" fill="#fefefa"/></g><g id="path710056"><path d="M675.08,357.89h29.46V442.8H675.08v-7.34A38.31,38.31,0,0,1,649,445.9c-22.54,0-40.81-20.25-40.81-45.24s18.27-45.23,40.81-45.23a38.31,38.31,0,0,1,26.07,10.44Zm0,42.77c0-10.75-7.64-19.47-18-19.47s-18.67,8.72-18.67,19.47,8.36,19.48,18.67,19.48S675.08,411.42,675.08,400.66Z" transform="translate(-69.62 -262.97)" fill="#fefefa"/></g><path d="M784,421.43v24.44c-17.25,0-44.32-3.63-44.32-33.13V384h-9.3V358h9.3V332.57h29.46v75C769.13,412.62,771.86,421.43,784,421.43Z" transform="translate(-69.62 -262.97)" fill="#fefefa"/><path d="M774.73,374.81a16.33,16.33,0,1,1,16.33,16.85A16.59,16.59,0,0,1,774.73,374.81Z" transform="translate(-69.62 -262.97)" fill="#a35213"/><circle cx="103.42" cy="103.42" r="103.42" fill="#a35213"/><path d="M244.57,430.26a26.13,26.13,0,0,1-4.51.78q-67.18.06-134.39,0c-4.69,0-4.87-.3-3.19-4.66,3.35-8.68,6.8-17.31,10-26,.84-2.29,2-3.11,4.45-3.07,7,.15,14.06.06,21.63.06,0-1.54.06-2.79,0-4-.63-12.28-1.23-24.57-2-36.84-.23-3.87-.16-7.55,1.68-11.13a56.52,56.52,0,0,0,3.26-8.3c1-2.94.87-5.42-1.78-8-4.61-4.45-5.29-16.13-1.88-21.54s9.8-7.22,16.1-4.78,9.26,7.63,8,14.14c-.31,1.63-.08,3.43-.67,4.93-1.14,2.91-2.13,6.17-4.17,8.36-3.91,4.21-4.3,7.45,0,11.15a17.45,17.45,0,0,1,6.16,13.21c.08,2,0,4,0,6.54a27,27,0,0,0,3-.74c2.34-.9,4.58-2.11,7-2.79,6.89-1.94,12.13-5.79,15.4-12.26,1-2,2.74-4.14,5-2.86a7.15,7.15,0,0,1,3.11,5.29,13.57,13.57,0,0,1-2.44,7.51,39,39,0,0,1-16.73,13.55c-3.39,1.39-6.52,3.4-9.82,5.16,1.44,7,5.4,11.58,11.78,14,6,2.29,12.26,4.06,18.08,6.75,5.18,2.39,10.39,2.89,15.9,2.71s11,.13,16.49-.1c2.81-.12,4,1,4.8,3.53,2.76,8.62,5.7,17.18,8.6,25.76a21.51,21.51,0,0,0,1,2.23ZM141.26,402.4l-.56-1.65c-7.12,0-14.23.11-21.34-.06-2.43-.06-3.63.72-4.46,3-2.55,6.93-5.32,13.78-8,20.68-.35.92-.53,1.91-.81,2.95H240L233.91,409c-2.76-8.28-2.76-8.28-11.61-8.28H204.22c0,2.05.28,3.66-.08,5.1s-1,3.67-2.18,4.15c-4.33,1.83-8.88,4.26-13.4,4.38-18.5.49-37,.2-55.52.22-2.35,0-4.47-.42-4.85-3.12s1.63-3.51,3.76-4.41C135.14,405.71,138.16,404,141.26,402.4Zm23.14-26.56c-1.33.64-2.49,1.18-3.63,1.74-3.9,1.94-5.13,1.53-7-2.43-1.74-3.8-3.47-7.59-5.12-11.42-1.44-3.34-.83-5.16,2.54-6.59,2.7-1.14,5.59-1.81,8.39-2.69,0-8.6-4.49-12.51-16.34-13.59-1.08,4.51-3.16,9.18-3.12,13.83.11,12.64,1.16,25.27,1.75,37.9.27,5.83,1.77,7.44,7.55,7.46,8.36,0,16.72-.05,25.07.09,1.13,0,2.24,1,3.36,1.59-1.12.59-2.21,1.66-3.35,1.71-4.64.19-9.3.08-14,.08H148.21v7.62h4.17c10.39,0,20.78-.17,31.16.05a34.48,34.48,0,0,0,14.21-2.78c2.9-1.2,3.11-3,3.17-5.54s-.7-3.87-3.21-4.71c-6.33-2.11-12.56-4.52-18.82-6.82s-11-6.5-13.38-13C165.24,377.56,164.86,376.85,164.4,375.84ZM158,316.58c-5.73.6-10.95,1.07-16.13,1.79a3.14,3.14,0,0,0-1.9,2.26c-.37,4.66,3.71,9,8.5,9.36a9,9,0,0,0,9.5-7.84C158.12,320.52,158,318.86,158,316.58ZM192.75,346c-5.85,6.69-7,9-5.61,11.6C192.89,353.54,194.46,350.45,192.75,346Zm-42.27-8.16v-4.29H146C145.09,337.54,145.31,337.77,150.48,337.85Z" transform="translate(-69.62 -262.97)" fill="#fff" stroke="#fff" stroke-miterlimit="10" stroke-width="2"/></svg>