<svg id="svg175763" xmlns="http://www.w3.org/2000/svg" viewBox="0 0 460.75 162.12"><path id="path175772" d="M285.74,332.45l.34-.16c-2.35-16.72-4.12-35.54-2.19-44.36l-.33-.16c-11.51,7.14-17.39,1.76-30.24,1l-.09.34C267.09,292.3,277.09,310.61,285.74,332.45Zm-77.61,34.86c2.35,16.72,5,35.2,3,44l.34.17c11.5-7.14,17.38-1.43,31.92-.42l.08-.34c-15.54-3.44-26.38-21.75-35-43.59Zm2-51.07c0,17.47,13.36,30.33,29.4,41.92,20.75,15,29.57,24.44,29.57,36.71,0,11.67-7.64,15.7-14.87,16.21l-.08.33c13.77.93,33.43-6.55,33.43-29.14,0-15.88-10.5-28.82-28.39-42-18.65-13.78-31.42-22.77-31.42-36.38,0-10.83,8.49-15.62,15.63-15.2l.08-.34c-12-.92-33.35,5.55-33.35,27.89Z" transform="translate(-208.13 -285.33)" fill="#c19b61"/><path id="path175774" d="M358.94,411.33a33.46,33.46,0,0,0,19.74-6.55l-.17-.34c-10,4.29-14.19-1.93-14.19-14.61,0-14.62.67-25.62.67-39,0-21.34-11.17-24.78-20-24.78a34.21,34.21,0,0,0-9.24,1.26l.08.34c8.57-.84,8.32,8.14,8.32,23.43,0,14.37-.67,27.3-.67,40.91C343.49,402.59,345.33,411.33,358.94,411.33ZM295.1,390.41c0,13.53,9.75,21,22.6,21a30.31,30.31,0,0,0,20.58-7.89l-.17-.34a16.58,16.58,0,0,1-8.9,3.19c-7.31,0-11.6-7.89-11.6-18.06,0-11.92,5.63-23.43,19-26v-.33C319.55,362.53,295.1,368.57,295.1,390.41Zm7.9-30.66.33.17c7.31-15.62,15.38-27.21,25-30.83l-.09-.33c-7.47,1.51-16.88,2.35-23.6-1.77l-.34.17C305.94,336.4,305.69,347.24,303,359.75Z" transform="translate(-208.13 -285.33)" fill="#c19b61"/><path id="path175776" d="M411.32,412.34l.34.08,13.94-38.13-.33-.17a4.53,4.53,0,0,1-3.36,1.59c-4.46,0-6.81-7.22-23.36-38.89-1-1.93-3.36-7.39,3.87-9.74v-.34H364v.34c4.45,1.34,11.42,10.33,18.23,22.43,11.76,20.91,29.06,54,29.06,62.83Zm-40.23,34.77.16.34c15.88-4.2,31.92-6.05,38.73-3.61l.17-.34c-3.45-6.47-3.95-13.19-.68-25.53l-.33-.17c-7.9,13.61-21.42,22-38.05,29.31Zm45.69-120c11.51,1.51,18.31,13.69,13.36,33.68l.33.17c7.23-19.4,14.7-30.07,24.36-33.85v-.34H416.78Z" transform="translate(-208.13 -285.33)" fill="#c19b61"/><path id="path175778" d="M469,311.45a13.06,13.06,0,1,0-13.11-13.1A13,13,0,0,0,469,311.45Zm-20.5,23.1c7.56,1.26,11.51,5.55,11.51,15.8v44.94c0,8.4-4,13.44-10.75,15.12v.33H491v-.33c-6.72-1.68-10.75-6.72-10.75-15.12V325.06a197,197,0,0,1-31.67,9.16Z" transform="translate(-208.13 -285.33)" fill="#c19b61"/><path id="path175780" d="M495.56,410.41v.33h41.67v-.33c-6.72-1.68-10.75-6.72-10.75-15.12V325.48a197.34,197.34,0,0,1-31.67,9.16V335c7.56,1.26,11.51,5.55,11.51,15.8v44.52c0,8.4-4,13.44-10.76,15.12Zm39.32-72.24.16.33c3.53-2.85,9-6.47,15.38-6.47,7.81,0,11.42,6,11.42,20.16,0,13.36-.76,26.55-.76,39.9,0,10.59,1.85,19.32,14.62,19.32a34.24,34.24,0,0,0,20.66-6.63l-.16-.34c-10,4.29-14.28-1.85-14.28-14.53,0-14.62.75-26,.75-39.06,0-18.06-8.4-24.78-21.25-24.78C550.42,326.07,541.09,331.53,534.88,338.17Z" transform="translate(-208.13 -285.33)" fill="#c19b61"/><path id="path175782" d="M597.73,357.4l.33.17c7.56-12.94,14.7-25.79,24.45-30.49v-.34a83,83,0,0,1-22.26-.75l-.34.16c1.09,8.4.34,17.9-2.18,31.25Zm-5.13,53.34h38v-.33c-8-.59-11-7.31-6.47-14.37l44.77-69v-.34h-38v.34c8,.59,11,7.31,6.46,14.36l-44.77,69Zm46.37,0c7.81-.75,17.22-.84,23.1.76l.34-.17c-1.1-8.4-.34-17.89,2.18-31.25l-.34-.17c-7.56,12.94-15.54,25.79-25.28,30.5Z" transform="translate(-208.13 -285.33)" fill="#c19b61"/></svg>