<svg id="svg20402" xmlns="http://www.w3.org/2000/svg" viewBox="0 0 202 202"><circle cx="101" cy="101" r="101" fill="#3e5269"/><path d="M360.5,115.22c0,5.84,0,11.68,0,17.51-.05,3.91-1.52,5.4-5.46,5.41q-17.59.09-35.19,0c-3.95,0-5.61-1.74-5.62-5.77q-.07-17.31,0-34.64c0-4.16,1.46-5.61,5.6-5.63q17.59-.06,35.2,0c4.32,0,5.45,1.21,5.49,5.62C360.53,103.55,360.5,109.39,360.5,115.22ZM323,101c0,9-.06,17.6.1,26.16a3.2,3.2,0,0,0,2.31,2.07c8,.16,16,.15,24,0,.75,0,2.12-1.14,2.13-1.77.14-8.78.09-17.56.09-26.48Z" transform="translate(-213 -37.35)" fill="#fff"/><path d="M304.23,110.37c0,4.47,0,8.94,0,13.42,0,3.19-1.54,4.84-4.79,4.84-9.12,0-18.23,0-27.35,0-3.06,0-4.58-1.63-4.58-4.65q0-13.62,0-27.22c0-3,1.53-4.64,4.59-4.64q13.86,0,27.72,0c2.88,0,4.36,1.62,4.39,4.45C304.26,101.17,304.23,105.77,304.23,110.37Zm-27.74,9.27h18.64V101.1H276.49Z" transform="translate(-213 -37.35)" fill="#fff"/><path d="M360.49,166.26c0,4.35.05,8.7,0,13.05-.06,3.95-1.25,5.25-5.07,5.28-8.87.07-17.74,0-26.61,0-3.4,0-5.06-1.56-5.05-5q0-13.23,0-26.47c0-3.34,1.44-5.12,4.91-5.11q13.49,0,27,0c3.22,0,4.86,1.55,4.86,4.78C360.48,157.31,360.49,161.78,360.49,166.26Zm-8.95-9.1H332.78v18.41h18.76Z" transform="translate(-213 -37.35)" fill="#fff"/><path d="M304,73.47v8.72c-9.07,0-17.93.47-26.73-.1-14.14-.92-20.75,5.67-19.83,19.65.57,8.76.1,17.59.1,26.65h-8.81v-4.6c0-9.57-.13-19.15.1-28.71a22.26,22.26,0,0,1,21.58-21.55C281.52,73.28,292.61,73.47,304,73.47Z" transform="translate(-213 -37.35)" fill="#fff"/><path d="M304,203.28H289.6c-6.25,0-12.5.1-18.74-.08a22.41,22.41,0,0,1-22-21.91c-.21-10.19-.06-20.38-.06-30.58a23.59,23.59,0,0,1,.27-2.39h8.52c0,10.26,0,20.29,0,30.33a21.76,21.76,0,0,0,.41,5.17,13.89,13.89,0,0,0,13.63,10.66c9.37.08,18.74,0,28.1,0H304Z" transform="translate(-213 -37.35)" fill="#fff"/><path d="M324,82.19V73.75c1.16-.12,2.12-.31,3.09-.31,9.74,0,19.48-.12,29.22,0,13,.19,22.7,9.69,22.9,22.6.17,10.66,0,21.33,0,32.29h-8.79V116.8c0-6.59,0-13.18,0-19.76-.05-9-5.94-14.81-15.07-14.84s-18.24,0-27.36,0Z" transform="translate(-213 -37.35)" fill="#fff"/><path d="M324,202.91v-8.4c10.19,0,20.15,0,30.11,0a25.09,25.09,0,0,0,5.21-.29,14,14,0,0,0,11.1-13.66c.08-9.32,0-18.64,0-28v-4.27h8.81c0,1.94,0,3.65,0,5.35,0,9.32.14,18.64-.1,28a22.34,22.34,0,0,1-21.61,21.55c-10.6.24-21.22.07-31.84.06A10.54,10.54,0,0,1,324,202.91Z" transform="translate(-213 -37.35)" fill="#fff"/><path d="M294.88,157.19V166c-1.94,0-3.88.13-5.8,0-2.84-.24-3.75,1-3.61,3.7.16,3.22.08,6.45,0,9.68-.07,3.94-1.26,5.2-5.09,5.27-4.09.08-8.19,0-12.58,0V176h8.88c0-4.2,0-8.11,0-12,0-5.39,1.42-6.77,6.88-6.78C287.18,157.18,290.8,157.19,294.88,157.19Z" transform="translate(-213 -37.35)" fill="#fff"/><path d="M313.8,156.68H305a48.91,48.91,0,0,1,0-5.15c.35-3.19-.78-4.47-4.16-4.28-4.68.25-9.39.06-14.35.06v-8.74c7.76,0,15.32-.11,22.87.06,2.71.07,4.3,2,4.37,4.67C313.88,147.62,313.8,151.94,313.8,156.68Z" transform="translate(-213 -37.35)" fill="#fff"/><path d="M304.78,175.87c.14-3.13.26-5.81.4-8.83h8.58c0,4.55.34,9.15-.2,13.63-.18,1.45-2.58,3.55-4.15,3.73-4.42.51-8.94.18-13.69.18v-8.71Z" transform="translate(-213 -37.35)" fill="#fff"/><path d="M267.72,138.69h8.34v13.2h-8.34Z" transform="translate(-213 -37.35)" fill="#fff"/><path d="M333.07,119.51V111.4c8-2.25,9.53-.84,8.28,8.11h-8.28Z" transform="translate(-213 -37.35)" fill="#fff"/><path d="M285.66,114.72c-4.09,1.1-4.21-1.35-4.39-4.5-.21-3.8,1.39-4.37,4.75-4.46,3.81-.1,4.43,1.4,4.48,4.76C290.54,114.21,289.27,115.52,285.66,114.72Z" transform="translate(-213 -37.35)" fill="#fff"/><path d="M346.47,166.38c1.11,4.12-1.21,4.39-4.45,4.54-3.75.18-4.46-1.28-4.52-4.69-.07-3.73,1.3-4.49,4.74-4.49C345.84,161.75,347.44,162.76,346.47,166.38Z" transform="translate(-213 -37.35)" fill="#fff"/></svg>