<svg id="svg311420" xmlns="http://www.w3.org/2000/svg" viewBox="0 0 362.6 241.26"><g id="title"><path id="path311429" d="M366.52,504.54a35.82,35.82,0,0,0,29.61-15.75l-11.7-7.92a21.65,21.65,0,0,1-39.6-12.15,21.66,21.66,0,0,1,21.69-21.6,21.7,21.7,0,0,1,18,9.63l11.7-7.92A35.72,35.72,0,0,0,366.52,433a35.11,35.11,0,0,0-13.95,2.79,36,36,0,0,0-11.34,7.65,35.5,35.5,0,0,0-7.65,39.24,36.43,36.43,0,0,0,19,19.08,36.75,36.75,0,0,0,13.95,2.79Z" transform="translate(-330.7 -263.37)" fill="#30302e"/><path id="path311431" d="M431.91,453.24l.09,2.88a26,26,0,0,0-11.61-2.79,25.37,25.37,0,0,0-10,2,27.84,27.84,0,0,0-8.19,5.49,26.72,26.72,0,0,0-5.49,8.19,26.19,26.19,0,0,0,0,20,25.46,25.46,0,0,0,13.68,13.68,27.07,27.07,0,0,0,10,2A26,26,0,0,0,432,501.84l-.09,2.07h13.5V453.24Zm-5.4,36.18a12.05,12.05,0,0,1-6.12,1.71,12.15,12.15,0,0,1,0-24.3,11.3,11.3,0,0,1,6.57,2,10.9,10.9,0,0,1,4.41,5,11.28,11.28,0,0,1,1.17,5.13,12.21,12.21,0,0,1-1.62,6.12,11.31,11.31,0,0,1-4.41,4.32Z" transform="translate(-330.7 -263.37)" fill="#30302e"/><path id="path311433" d="M452.57,503.91h13.59V431.37l-13.59,4.5Z" transform="translate(-330.7 -263.37)" fill="#30302e"/><path id="path311435" d="M497,504.63a25.76,25.76,0,0,0,21.15-11.16l-11.16-7.65a12.12,12.12,0,1,1-.09-13.86l11.07-7.74a26.19,26.19,0,0,0-9-7.92,25.35,25.35,0,0,0-12-3,25.06,25.06,0,0,0-10,2,26.72,26.72,0,0,0-8.19,5.49,26.2,26.2,0,0,0-5.49,8.19,26.19,26.19,0,0,0,0,20,26.2,26.2,0,0,0,5.49,8.19A25.55,25.55,0,0,0,497,504.63Z" transform="translate(-330.7 -263.37)" fill="#30302e"/><path id="path311437" d="M542.27,504.54a22.43,22.43,0,0,0,22.5-22.5V453.78h-13.5V482a9,9,0,0,1-18,0V453.78h-13.5V482a22.43,22.43,0,0,0,22.5,22.5Z" transform="translate(-330.7 -263.37)" fill="#30302e"/><path id="path311439" d="M572.1,503.91h13.59V431.37l-13.59,4.5Z" transform="translate(-330.7 -263.37)" fill="#30302e"/><path id="path311441" d="M627.73,453.24l.09,2.88a26,26,0,0,0-11.61-2.79,25.37,25.37,0,0,0-10,2A27.84,27.84,0,0,0,598,460.8a26.72,26.72,0,0,0-5.49,8.19,26.19,26.19,0,0,0,0,20,25.46,25.46,0,0,0,13.68,13.68,27.07,27.07,0,0,0,10,2,26,26,0,0,0,11.61-2.79l-.09,2.07h13.5V453.24Zm-5.4,36.18a12.05,12.05,0,0,1-6.12,1.71,12.15,12.15,0,0,1,0-24.3,11.3,11.3,0,0,1,6.57,2,10.9,10.9,0,0,1,4.41,5,11.28,11.28,0,0,1,1.17,5.13,12.21,12.21,0,0,1-1.62,6.12,11.31,11.31,0,0,1-4.41,4.32Z" transform="translate(-330.7 -263.37)" fill="#30302e"/><path id="path311443" d="M677.28,503.91h16L675,478.71l18.09-24.93H676.83l-10,14-9.81-14H640.47l18.27,24.84-18.18,25.29h15.93l10.44-13.86Z" transform="translate(-330.7 -263.37)" fill="#30302e"/></g><path d="M461.63,263.37H563.12c0,1.49-.08,3-.08,4.47q0,70.1,0,140.2v4.26H461.71V408q0-19.4,0-38.78Q461.68,316.31,461.63,263.37Zm12,47.59H551V275.48H473.61Zm17.81,12.28H473.73v17.58h17.69Zm12.24-.06v17.69h17.56V323.18ZM551,340.92V323.27H533.46v17.65Zm-59.59,12.13H473.7V370.7h17.69Zm12.23-.06v17.64h17.51V353Zm29.69,17.67H551V353.1H533.31Zm-59.64,29.79h17.58V383H473.67ZM521.28,383H503.6v17.56h17.68Zm29.85,0H533.45V400.5h17.68Z" transform="translate(-330.7 -263.37)" fill="#30302e"/></svg>