<svg id="svg511747" xmlns="http://www.w3.org/2000/svg" viewBox="0 0 195.58 176.11"><path d="M232.48,337.87h-70a6.27,6.27,0,0,1-2.42-.07c-1.08-.49-2.49-1.16-2.84-2.09-.28-.76.52-2.36,1.31-3a54.6,54.6,0,0,1,6-3.8q19.92-11.9,39.87-23.76c9.06-5.39,18.13-10.78,27.25-16.08a3,3,0,0,1,2.53.05c7.89,4.6,15.73,9.29,23.58,14l45.34,27a22.19,22.19,0,0,1,3.79,2.32c.84.78,1.92,2.28,1.66,3-.34,1-1.79,1.8-2.93,2.35a6.49,6.49,0,0,1-2.62.1Zm61.58-6.44c-1.29-.94-2-1.54-2.8-2q-19.9-11.94-39.83-23.85c-5.75-3.43-11.52-6.83-17.25-10.3a2.69,2.69,0,0,0-3.17.05c-5.25,3.2-10.56,6.33-15.85,9.48Q196.35,316,177.55,327.24c-2.06,1.23-4.07,2.54-6.09,3.81l0,.71a25.56,25.56,0,0,0,3.35.42q57.62,0,115.25,0a12.4,12.4,0,0,0,1.83-.05A17,17,0,0,0,294.06,331.43Z" transform="translate(-134.98 -288.83)" fill="#fff" style="isolation:isolate"/><path d="M232.51,464.84q-46.45,0-92.92,0a5.49,5.49,0,0,1-3.06-.6c-.8-.57-1.77-2.09-1.51-2.68.44-1,1.73-1.7,2.79-2.29.52-.3,1.33-.09,2-.09H325.64c.61,0,1.23,0,1.84,0,1.43.14,3.49,1.91,3,2.73a9.25,9.25,0,0,1-3.07,2.82c-.59.37-1.6.09-2.41.09Z" transform="translate(-134.98 -288.83)" fill="#fff" style="isolation:isolate"/><path d="M232.51,448.2q41.14,0,82.31,0a6.52,6.52,0,0,1,3.24.72c.73.44,1.62,1.9,1.38,2.35a7.27,7.27,0,0,1-2.67,2.48c-.49.31-1.33.09-2,.09q-82.11,0-164.21,0a5.6,5.6,0,0,1-3.07-.59c-.79-.58-1.74-2.09-1.48-2.69a5.88,5.88,0,0,1,2.8-2.27,5.83,5.83,0,0,1,2.41-.09Z" transform="translate(-134.98 -288.83)" fill="#fff" style="isolation:isolate"/><path d="M232.71,437.23H304c2.69,0,4.67,1.25,4.61,2.9s-2,2.77-4.55,2.77H161.26c-2.63,0-4.48-1.17-4.51-2.81s1.9-2.86,4.45-2.86Z" transform="translate(-134.98 -288.83)" fill="#fff" style="isolation:isolate"/><path d="M295.4,387.48V348c0-2.58,1.32-4.72,2.89-4.73s2.9,2.19,2.9,4.76q0,39.51,0,79a5.21,5.21,0,0,1-.59,2.9c-.59.83-2.07,1.94-2.59,1.7a7.1,7.1,0,0,1-2.51-2.83c-.31-.49-.08-1.33-.08-2Z" transform="translate(-134.98 -288.83)" fill="#fff" style="isolation:isolate"/><path d="M191.74,387.7q0,19.55,0,39.09c0,.74.26,1.69-.1,2.19a22.67,22.67,0,0,1-2.8,2.83c-.91-1-1.88-1.9-2.7-2.94-.23-.29-.06-.92-.06-1.39q0-39.9,0-79.8a5.26,5.26,0,0,1,.67-2.85c.51-.73,1.89-1.69,2.34-1.46a7.12,7.12,0,0,1,2.52,2.64c.34.55.11,1.46.11,2.2Q191.76,368,191.74,387.7Z" transform="translate(-134.98 -288.83)" fill="#fff" style="isolation:isolate"/><path d="M273.63,387.28V347.76c0-2.47,1.32-4.56,2.82-4.52s2.86,2.2,2.86,4.56q0,39.81,0,79.64a4.45,4.45,0,0,1-.58,2.66c-.66.77-2.1,1.75-2.7,1.49-1-.44-1.72-1.72-2.29-2.79a5.19,5.19,0,0,1-.09-2.21Z" transform="translate(-134.98 -288.83)" fill="#fff" style="isolation:isolate"/><path d="M169.83,387.56v39.5c0,2.77-1.16,4.71-2.8,4.75s-2.88-2-2.88-4.65V348c0-.61-.2-1.41.1-1.8a32.2,32.2,0,0,1,2.82-2.91,25.13,25.13,0,0,1,2.65,3c.35.53.11,1.45.11,2.2Z" transform="translate(-134.98 -288.83)" fill="#fff" style="isolation:isolate"/><path d="M233,410.21c-8-.75-14.94-2.88-20.45-8.53-1.16-1.18-1.86-2.34-.44-3.84s2.62-1.12,3.88,0a23.18,23.18,0,0,0,10.11,5.81,25.13,25.13,0,0,0,12.83,0,21.82,21.82,0,0,0,12.93-9.25,50.44,50.44,0,0,0,4-8.35c.54-1.31,1.11-2.49,2.63-2.3s2.33,1.36,2.22,3.07c-.23,3.61-2.16,6.49-3.89,9.45-3.7,6.34-9.34,10.28-16.16,12.53A51.93,51.93,0,0,1,233,410.21Z" transform="translate(-134.98 -288.83)" fill="#fff" style="isolation:isolate"/><path d="M237.45,373.21c0-1.49,0-3,0-4.47,0-1.76,1.61-3.64,2.94-3.56s2.68,1.82,2.71,3.58c0,3.05,0,6.1,0,9.16a2.68,2.68,0,0,1,0,.4c-.13,1.54-1.66,3.33-2.81,3.3s-2.77-1.89-2.82-3.32c-.05-1.69,0-3.39,0-5.09Z" transform="translate(-134.98 -288.83)" fill="#fff" style="isolation:isolate"/><path d="M227.9,373.33c0,1.29,0,2.57,0,3.86,0,.4,0,.81,0,1.22-.17,1.48-1.87,3.44-2.94,3.15a3.29,3.29,0,0,1-2.66-3.18c-.08-3.31-.07-6.63,0-9.94,0-1.62,1.57-3.27,2.81-3.26s2.69,1.75,2.81,3.28c0,.14,0,.27,0,.41Z" transform="translate(-134.98 -288.83)" fill="#fff" style="isolation:isolate"/></svg>