<svg id="Layer_1" data-name="Layer 1" xmlns="http://www.w3.org/2000/svg" viewBox="0 0 401.35 401.35"><circle cx="200.68" cy="200.68" r="200.68" fill="#f9f3da"/><path d="M148.79,387.76c-.45-85,72.57-157.67,157.68-157.54,88.21.13,159.14,73.41,159,157.72A159.44,159.44,0,0,1,306.12,547C221.93,547.07,148.3,476.06,148.79,387.76ZM306.25,246.63c-76.08,0-141.15,64.85-141.14,141,0,79.7,65.26,142.95,140.86,143A142.51,142.51,0,0,0,449,387.74C449.08,312.12,386,246.88,306.25,246.63Z" transform="translate(-106.43 -187.94)" fill="#1c4b53"/><path d="M392,359a56.36,56.36,0,0,1-6.82-2.4,4.88,4.88,0,0,0-5.72.44c-19.09,14-38.14,28.08-57.43,41.81-3.81,2.7-8.53,4.25-13,5.85-3.61,1.29-7.22.11-10.27-2-10.75-7.45-21.51-14.89-32.06-22.62-6.9-5.05-13.38-10.67-20.2-15.83a5.25,5.25,0,0,0-4.41-.75c-7.6,3.4-13.65.62-19-4.54a22.73,22.73,0,0,1-4.82-6.93c-2.88-6.41-7.27-11.54-12.33-16.27-.92-.85-1-2.56-1.53-3.87,1.45-.4,3-1.35,4.34-1.09A69.56,69.56,0,0,0,228.64,332c8.63-.72,16.52,1.35,21.79,9.14.3.45.79.94.79,1.41,0,5.5,4.1,6.94,8.2,8.74,14,6.17,28.26,12,41.83,19.09,5.8,3,10,1.45,14.81-.65q25.47-11.1,50.92-22.2c2.18-.95,4.55-1.44,6.73-2.38a3.33,3.33,0,0,0,1.77-2.16c1.18-10.4,7.82-16.8,18.28-17.2,4.48-.17,9,.29,13.45.06,3.78-.19,7.52-1.11,11.3-1.41,1.54-.12,3.74,0,4.58,1,1.53,1.77,0,3.3-1.58,4.57-4.11,3.4-6.74,7.85-9.4,12.43-3.25,5.59-6.42,11.57-12.85,14.38A68,68,0,0,1,392,359Zm-80.7,28.63a5.18,5.18,0,0,0-5.31-5,5.1,5.1,0,0,0-4.93,5.36,5.12,5.12,0,0,0,10.24-.34Z" transform="translate(-106.43 -187.94)" fill="#1c4b53"/></svg>