<svg id="svg8872" xmlns="http://www.w3.org/2000/svg" viewBox="0 0 584.95 187.05"><g id="title"><path id="path8881" d="M456.71,405.41H407.13v29.3h49.58c41.69,0,61.29-21.64,61.29-72.34,0-50.26-17.12-71.89-61.29-71.89H407.13v29.29h49.58c30,0,32,2.48,32,42.6C488.71,401.8,485.33,405.41,456.71,405.41Z" transform="translate(-224.43 -290.48)" fill="#f8f0d9"/><path id="path8883" d="M556.8,434.71,557,317.52h-29.3V434.71ZM527.73,308.5H557v-18h-29.3Z" transform="translate(-224.43 -290.48)" fill="#f3bca9"/><path id="path8885" d="M596.2,326.31v-8.79H566.9V434.71h29.3V371.15c0-16,3.38-25.91,17.58-25.91h17.13c14.19,0,19.38,9.91,19.38,30.87v58.6h29.29V369.35c0-36.06-17.12-53-53.63-53C612.2,316.39,602.74,319.55,596.2,326.31Z" transform="translate(-224.43 -290.48)" fill="#ee8879"/><path id="path8887" d="M744.92,436.06c14.87,0,26.59-5.41,35.16-14.65v4.28c0,18-4.51,22.54-22.54,22.54H748.3c-19.83,0-22.54-1.81-22.54-9H696.47c0,21.64,16.67,38.31,51.83,38.31h9.24c32.23,0,51.83-19.6,51.83-51.83V317.52H780.08v13.3c-8.57-9-20.29-14.43-35.16-14.43-32.9,0-55.21,26.59-55.21,59.27C689.71,409.24,712,436.06,744.92,436.06Zm-28.17-60.4c0-19.6,10.59-31.32,25.92-31.32h13.52c15.32,0,23.89,9.46,23.89,24.56v13.52c0,15.1-8.57,24.57-23.89,24.57H742.67C727.34,407,716.75,395.27,716.75,375.66Z" transform="translate(-224.43 -290.48)" fill="#e95449"/></g><g style="isolation:isolate"><path d="M224.43,382.58c-.19-35.83,30.6-66.48,66.49-66.43,37.19.06,67.1,31,67,66.51a67.23,67.23,0,0,1-67.17,67.07C255.27,449.75,224.23,419.81,224.43,382.58Zm66.39-59.51c-32.08,0-59.51,27.35-59.51,59.45,0,33.6,27.52,60.27,59.4,60.28A60.1,60.1,0,0,0,351,382.57C351.05,350.69,324.43,323.18,290.82,323.07Z" transform="translate(-224.43 -290.48)" fill="#f8f0d9"/><path d="M327,370.47a24.21,24.21,0,0,1-2.87-1,2.08,2.08,0,0,0-2.42.18c-8,5.91-16.08,11.85-24.21,17.63a22.81,22.81,0,0,1-5.48,2.47,4.75,4.75,0,0,1-4.33-.84c-4.53-3.14-9.07-6.28-13.52-9.54-2.91-2.13-5.64-4.5-8.52-6.68a2.22,2.22,0,0,0-1.86-.31c-3.2,1.43-5.75.26-8-1.92a9.58,9.58,0,0,1-2-2.92,21.58,21.58,0,0,0-5.2-6.86c-.39-.36-.44-1.08-.64-1.63.61-.17,1.27-.57,1.82-.46a29.41,29.41,0,0,0,8.38.48c3.64-.3,7,.57,9.19,3.85.13.19.33.4.33.6,0,2.32,1.73,2.93,3.46,3.69,5.92,2.59,11.91,5.06,17.63,8.05,2.45,1.27,4.21.6,6.25-.28,7.16-3.12,14.31-6.26,21.47-9.36.92-.4,1.92-.61,2.84-1a1.41,1.41,0,0,0,.74-.9c.5-4.39,3.3-7.09,7.71-7.26,1.89-.07,3.79.12,5.67,0,1.59-.08,3.17-.47,4.77-.6a2.69,2.69,0,0,1,1.93.41c.64.75,0,1.39-.67,1.93a18.39,18.39,0,0,0-4,5.24c-1.37,2.36-2.71,4.88-5.42,6.06A26.56,26.56,0,0,1,327,370.47Zm-34,12.07a2.19,2.19,0,0,0-2.23-2.12,2.16,2.16,0,0,0-2.08,2.27,2.16,2.16,0,0,0,4.31-.15Z" transform="translate(-224.43 -290.48)" fill="#f8f0d9"/></g></svg>