<svg id="svg693109" xmlns="http://www.w3.org/2000/svg" viewBox="0 0 198.28 198.28"><circle cx="99.14" cy="99.14" r="99.14" fill="#24231f"/><path d="M177.83,320.11c-2.5-1.43-3.37-3.61-3.84-6.45q-8.07-48.23-16.39-96.41c-1.19-7-.71-7.5,6.28-9.06a16.73,16.73,0,0,0,6.93-3.33c9.37-7.93,18.58-16.06,27.7-24.27a8.42,8.42,0,0,0,2.27-4.65c.61-3.77,3-6.63,6.7-7.25s6.63,1.29,8.48,4.91a8.51,8.51,0,0,0,3.67,3.72c9.81,4.37,19.76,8.42,29.58,12.76,3.9,1.72,7.6,2.77,12,1.81,5.09-1.12,6.11,0,7,5.23q8.21,48.39,16.48,96.78c1.14,6.7.56,7.67-6.1,8.81Q230,311,181.44,319.25a24.5,24.5,0,0,0-2.85.86Zm1-5.61a7.09,7.09,0,0,0,1.41.2q48.6-8.24,97.22-16.42c2.56-.43,3-1.23,2.53-3.7-4.79-27.91-9.44-55.84-14.15-83.76-.81-4.81-1.72-9.61-2.63-14.69L161.51,213.36C167.34,247.32,173.1,280.9,178.87,314.5Zm66.23-120,.06-1.1c-9.5-4.05-19-8.15-28.53-12.06-.8-.33-2.11.8-3.23,1-2.47.48-5.13,1.51-7.42,1a4.35,4.35,0,0,0-4.59,1.05c-7.19,6.38-14.44,12.69-21.64,19a30.26,30.26,0,0,0-2.18,2.5Z" transform="translate(-121.98 -145.2)" fill="#fff"/><path d="M233.74,257c1.32-2,2.46-3.82,3.65-5.58,2.77-4.09,6.76-4.9,10.76-2,6.46,4.68,12.93,9.36,19.17,14.32a6.29,6.29,0,0,1,2.17,5c-.22,1.26-2.49,2.79-4.06,3.1-20.6,4-41.24,7.81-61.86,11.67-6.09,1.14-12.15,2.47-18.28,3.35-1.59.23-4.07-.4-4.87-1.53s-.58-3.75.23-5.08c7.38-12.1,14.95-24.09,22.57-36,2.66-4.17,6.61-4.78,10.75-1.78C220.52,247.2,227,252.05,233.74,257Zm30.78,10.33c-7.16-5.29-13.27-9.93-19.58-14.3-.66-.47-2.83.26-3.56,1.09a31.84,31.84,0,0,0-3.9,6c-1.62,3-3.38,3.12-6,1.08-6-4.64-12.16-9.07-18.25-13.58-4.54-3.36-4.55-3.36-7.65,1.56q-8.4,13.31-16.76,26.62c-1.19,1.9-2.32,3.83-3.9,6.46Z" transform="translate(-121.98 -145.2)" fill="#fff"/><path d="M234.86,242.52A11.41,11.41,0,0,1,223.31,231,11.57,11.57,0,0,1,235,219.16a11.87,11.87,0,0,1,11.69,11.59A11.72,11.72,0,0,1,234.86,242.52Zm7-11.65a7,7,0,0,0-6.9-7,7.09,7.09,0,0,0-7.08,6.88A7.2,7.2,0,0,0,235,238,7.09,7.09,0,0,0,241.86,230.87Z" transform="translate(-121.98 -145.2)" fill="#fff"/></svg>