<svg id="svg693109" xmlns="http://www.w3.org/2000/svg" viewBox="0 0 459.75 108.01"><g id="path693118"><path d="M326.63,435.13h-44.5v-2.74c7.78,0,12.24-2.73,12.24-10.94V346.56c0-8.21-4.46-10.94-12.24-10.94v-2.74h44.5v2.74c-7.63,0-12.24,2.73-12.24,10.94v74.89c0,8.21,4.61,10.94,12.24,10.94Z" transform="translate(-282.13 -330)" fill="#24231f"/></g><g id="path693120"><path d="M430.84,332.88H463.1v2.74c-7.63,0-12.24,2.73-12.24,10.94v74.89c0,8.21,4.61,10.94,12.24,10.94v2.74H418.6v-2.74c7.63,0,12.24-2.73,12.24-10.94v-76.9l-36.58,90.58h-4.75l-38.45-84.25c-4.75-10.22-9.08-15.26-16.85-15.26v-2.74h29.52l36.15,76.62Z" transform="translate(-282.13 -330)" fill="#24231f"/><polygon points="74.98 94.76 64.9 108.01 54.81 94.76 64.9 81.51 74.98 94.76" fill="#88784b"/></g><g id="path693124"><path d="M627.22,393.8h31.25v2.88c-7.63,0-11.23,2.59-11.23,10.94v19.16C641,430.81,622,438,608.93,438c-34,0-55.16-24.19-55.16-54,0-31.25,22.47-54,55.16-54,15.41,0,26.36,4.9,33.84,7.92l2.16,26.21-2.73.72c-6.05-20.45-17.28-30.24-31.68-30.24-19.73,0-34.28,22.18-34.28,49.39s14,49,32.12,49A31.19,31.19,0,0,0,622,430.23c3.31-1.73,5.18-4.17,5.18-7.2Z" transform="translate(-282.13 -330)" fill="#24231f"/><polygon points="328.24 51.84 337.31 63.8 328.24 75.89 319.17 63.8 328.24 51.84" fill="#88784b"/></g><g id="path693126"><path d="M741.88,410.65l-4.47,24.48H658.93v-4.32l60.77-97.93h19.87v4.32l-57.31,93.61h32c13.1,0,20.88-8.21,24.91-20.6Z" transform="translate(-282.13 -330)" fill="#24231f"/><polygon points="389.62 26.5 379.54 13.25 389.62 0 399.7 13.25 389.62 26.5" fill="#88784b"/></g><path d="M481,436.24c-1.72-1-2.32-2.49-2.64-4.44q-5.55-33.18-11.28-66.34c-.82-4.8-.49-5.16,4.32-6.24a11.5,11.5,0,0,0,4.77-2.29c6.45-5.46,12.79-11.05,19.06-16.7a5.77,5.77,0,0,0,1.56-3.2,5.65,5.65,0,0,1,4.62-5c2.54-.42,4.56.89,5.83,3.38a5.85,5.85,0,0,0,2.53,2.56c6.75,3,13.59,5.8,20.35,8.78,2.69,1.19,5.23,1.91,8.27,1.24,3.5-.76,4.2,0,4.81,3.6q5.64,33.31,11.34,66.6c.78,4.61.39,5.28-4.2,6.07l-66.85,11.38a15.21,15.21,0,0,0-2,.59Zm.72-3.86a6.64,6.64,0,0,0,1,.14q33.45-5.67,66.9-11.3c1.76-.3,2-.85,1.74-2.55-3.3-19.2-6.5-38.42-9.74-57.64-.56-3.31-1.18-6.61-1.81-10.11l-70,11.86C473.76,386.15,477.73,409.26,481.7,432.38Zm45.58-82.6,0-.76c-6.53-2.78-13-5.61-19.63-8.29-.55-.23-1.45.54-2.22.69-1.7.33-3.53,1-5.1.68a3,3,0,0,0-3.17.73c-4.94,4.39-9.93,8.73-14.89,13.1-.39.35-.7.8-1.5,1.72Z" transform="translate(-282.13 -330)" fill="#88784b"/><path d="M519.46,392.83c.91-1.39,1.69-2.63,2.51-3.84,1.91-2.81,4.65-3.37,7.4-1.37,4.45,3.22,8.9,6.44,13.19,9.86a4.35,4.35,0,0,1,1.5,3.42c-.15.87-1.71,1.92-2.8,2.14-14.17,2.75-28.37,5.37-42.57,8-4.19.78-8.36,1.7-12.57,2.3a4,4,0,0,1-3.35-1.05,3.94,3.94,0,0,1,.15-3.5c5.08-8.32,10.29-16.57,15.53-24.8,1.83-2.87,4.56-3.28,7.4-1.22C510.36,386.07,514.82,389.4,519.46,392.83Zm21.18,7.11c-4.93-3.64-9.14-6.83-13.47-9.84-.46-.32-2,.18-2.46.75A21.9,21.9,0,0,0,522,395c-1.11,2.05-2.32,2.15-4.14.75-4.12-3.2-8.36-6.24-12.56-9.35-3.12-2.31-3.13-2.31-5.26,1.08q-5.77,9.15-11.53,18.31c-.82,1.31-1.6,2.64-2.69,4.44Z" transform="translate(-282.13 -330)" fill="#88784b"/><path d="M520.23,382.84a7.84,7.84,0,0,1-8-7.92,8,8,0,0,1,8-8.14,8.17,8.17,0,0,1,8.05,8A8.06,8.06,0,0,1,520.23,382.84Zm4.81-8A4.78,4.78,0,0,0,520.3,370a4.88,4.88,0,0,0-4.88,4.73,5,5,0,0,0,4.91,5A4.87,4.87,0,0,0,525,374.83Z" transform="translate(-282.13 -330)" fill="#88784b"/></svg>