<svg id="svg95382" xmlns="http://www.w3.org/2000/svg" viewBox="0 0 851.44 175.88"><defs><style>.cls-1{fill:#fff;}</style></defs><g id="path95391"><polygon class="cls-1" points="95.3 1.99 65.37 1.99 0 174.55 36.77 174.55 80.28 54.93 124.17 174.55 160.94 174.55 95.3 1.99"/><polygon class="cls-1" points="80.59 174.55 53.12 132.03 107.82 132.03 80.59 174.55"/></g><g id="path95393"><path class="cls-1" d="M186.63,291.67c-10.44-10.77-25.69-16.24-45.33-16.24H78.69V448h34.73V308.39h25.89c8.56,0,15.42,2,19.8,5.91s6.52,9.56,6.52,17.1c0,7.3-2.12,13-6.3,16.84-4.91,4.53-12.68,6.83-23.12,6.83h-5.83v33H138a89.09,89.09,0,0,0,24.62-3.2,56.55,56.55,0,0,0,20.22-10.33,47.31,47.31,0,0,0,13.54-18A61.92,61.92,0,0,0,201,331.84C201,315.3,196.05,301.4,186.63,291.67Z" transform="translate(100.56 -273.44)"/></g><g id="path95395"><path class="cls-1" d="M226.64,286.49l34.73-11.06V415H339v33H226.64Z" transform="translate(100.56 -273.44)"/></g><g id="path95397"><path class="cls-1" d="M363.17,286.49l34.73-11.06V448H363.17Z" transform="translate(100.56 -273.44)"/></g><g id="path95399"><path class="cls-1" d="M481.7,442.39A87.94,87.94,0,1,1,589,312.47L560.16,331.8a53.21,53.21,0,1,0-.11,59.31l28.79,19.44A88,88,0,0,1,481.7,442.39Z" transform="translate(100.56 -273.44)"/></g><g id="path95401"><polygon class="cls-1" points="785.81 1.99 755.88 1.99 690.5 174.55 727.27 174.55 770.79 54.93 814.68 174.55 851.44 174.55 785.81 1.99"/><polygon class="cls-1" points="771.09 174.55 743.63 132.03 798.32 132.03 771.09 174.55"/></g></svg>