<svg id="svg95382" xmlns="http://www.w3.org/2000/svg" viewBox="0 0 637.29 637.29"><defs><style>.cls-1{fill:none;}.cls-2{fill:#fff;}</style></defs><circle class="cls-1" cx="318.64" cy="318.64" r="318.64"/><path class="cls-2" d="M79.94-31.69h285c0,4.19-.23,8.43-.23,12.55v405.6H80.17V265.62Q80.08,117,79.94-31.69Zm33.7,133.59H330.92V2.23H113.58Zm50,34.48H113.92v49.36h49.66Zm34.37-.14v49.67h49.3V136.24Zm132.88,49.81V136.47H281.62v49.58ZM163.56,220.11H113.83v49.55H163.5Zm34.33-.17v49.53h49.17V219.94Zm83.39,49.61H331V220.22H281.23ZM113.75,353.19h49.36v-49H113.75Zm133.67-49.13H197.78v49.27h49.64Zm83.81,0H281.59v49.27h49.64Z" transform="translate(96.24 141.27)"/></svg>