<svg id="svg95382" xmlns="http://www.w3.org/2000/svg" viewBox="0 0 244.46 335.47"><defs><style>.cls-1{fill:#fff;}</style></defs><polygon class="cls-1" points="229.22 48.02 229.22 286.46 228.41 287.49 187.65 287.49 187.65 165.79 123.15 248.42 104.13 224.59 100.09 219.54 99.98 219.42 58.25 271.92 45.86 287.49 45.76 287.63 45.74 287.63 40.81 293.83 224.66 293.83 191.55 335.46 0 335.46 0.02 335.44 16.68 314.43 32.78 294.1 32.95 293.87 32.99 293.83 37.9 287.63 38 287.49 58.25 261.94 95.96 214.37 122.31 181.09 124.84 177.91 187.65 98.63 227.57 48.2 227.74 48.02 229.22 48.02"/><polygon class="cls-1" points="244.46 0 239.32 6.45 211.18 41.88 211.16 41.88 206.27 48.02 206.13 48.2 206.13 48.2 187.65 71.46 111.36 167.39 84.97 200.59 80.82 195.41 80.62 195.14 76.49 189.99 58.25 167.11 58.25 234.21 16.68 286.48 16.68 48.74 58.25 100.83 102.88 156.78 107.03 161.97 107.23 162.2 187.65 61.06 197.85 48.2 198.02 48.02 202.91 41.88 20.85 41.88 54.14 0 244.46 0"/></svg>