<svg id="svg78926" xmlns="http://www.w3.org/2000/svg" viewBox="0 0 179 179"><circle cx="89.5" cy="89.5" r="89.5" fill="#47aae7"/><g id="path78935"><path d="M414,445.15a12.12,12.12,0,0,1-16.92-.37l-41.94-44.46V436.5a12,12,0,0,1-23.94,0V334.25a12,12,0,0,1,23.94,0v31.69l13.68-14.58a11.9,11.9,0,1,1,16.92,16.74l-16,14.76,44.65,45.36A12.14,12.14,0,0,1,414,445.15Z" transform="translate(-284.86 -295.89)" fill="#fff"/><path d="M402.25,322.37a12,12,0,1,1-11.88,11.88A12,12,0,0,1,402.25,322.37Z" transform="translate(-284.86 -295.89)" fill="#fff"/></g></svg>