<svg id="svg78926" xmlns="http://www.w3.org/2000/svg" viewBox="0 0 391.47 129.28"><g id="path78935"><path d="M414,445.15a12.12,12.12,0,0,1-16.92-.37l-41.94-44.46V436.5a12,12,0,0,1-23.94,0V334.25a12,12,0,0,1,23.94,0v31.69l13.68-14.58a11.9,11.9,0,1,1,16.92,16.74l-16,14.76,44.65,45.36A12.14,12.14,0,0,1,414,445.15Z" transform="translate(-331.15 -319.13)" fill="#47aae7"/><path d="M402.25,322.37a12,12,0,1,1-11.88,11.88A12,12,0,0,1,402.25,322.37Z" transform="translate(-331.15 -319.13)" fill="#a1def5"/></g><g id="path78937"><path d="M491.65,448.39H466.27a12,12,0,0,1-11.88-11.89V334.25a12,12,0,0,1,23.94,0v90.19h13.32a12,12,0,0,1,0,23.95Z" transform="translate(-331.15 -319.13)" fill="#47aae7"/><path d="M515.59,436.5a11.89,11.89,0,1,1,11.88,11.89A11.91,11.91,0,0,1,515.59,436.5Z" transform="translate(-331.15 -319.13)" fill="#a1def5"/></g><g id="path78939"><path d="M567.31,331a12,12,0,1,1,11.88,12.06A12,12,0,0,1,567.31,331Z" transform="translate(-331.15 -319.13)" fill="#a1def5"/><path d="M567.31,436.51V366.84a12,12,0,0,1,23.94,0v69.67a12,12,0,0,1-23.94,0Z" transform="translate(-331.15 -319.13)" fill="#47aae7"/></g><g id="path78941"><path d="M719,445.15a12.12,12.12,0,0,1-16.92-.37l-41.94-44.46V436.5a12,12,0,0,1-23.94,0V334.25a12,12,0,0,1,23.94,0v31.69l13.68-14.58a11.9,11.9,0,1,1,16.92,16.74l-16,14.76,44.64,45.36A12.14,12.14,0,0,1,719,445.15Z" transform="translate(-331.15 -319.13)" fill="#47aae7"/><path d="M707.29,322.37a12,12,0,1,1-11.88,11.88A12,12,0,0,1,707.29,322.37Z" transform="translate(-331.15 -319.13)" fill="#a1def5"/></g></svg>