<svg id="svg278173" xmlns="http://www.w3.org/2000/svg" viewBox="0 0 189.08 189.08"><circle cx="94.54" cy="94.54" r="94.54" fill="#3457a6"/><path d="M224.24,221.93c-1,17.39-14.23,28.55-29.32,28.08-17.57-.54-28.45-14.38-28-29.29.47-16,13.87-28.69,29-28C213.09,193.49,224.06,206.56,224.24,221.93ZM195.68,196c-13.66-.16-25.51,11.59-25.58,25.35s11.72,25.51,25.45,25.49,25.14-11.45,25.4-25.17S209.48,196.16,195.68,196Z" transform="translate(-101 -126.89)" fill="#fff"/><path d="M128.58,190.84c0-5.47-.05-10.94,0-16.4a19.88,19.88,0,0,1,19.85-19.95q17-.12,33.91,0c1.11,0,2.21.92,3.32,1.41-1.13.61-2.26,1.73-3.39,1.74-10.93.14-21.87.06-32.8.09-10.45,0-17.56,7.1-17.6,17.5,0,10.93,0,21.86-.09,32.79,0,1.18-1.07,2.35-1.64,3.52-.53-1.2-1.47-2.39-1.51-3.6C128.48,202.27,128.57,196.55,128.58,190.84Z" transform="translate(-101 -126.89)" fill="#fff"/><path d="M262.49,191.2c0,5.6.09,11.19-.07,16.78,0,1.21-1,2.4-1.51,3.6-.57-1.17-1.63-2.34-1.64-3.51-.13-10.81-.06-21.62-.08-32.43s-7-17.85-18-17.87-21.62,0-32.43-.09c-1.14,0-2.27-1.13-3.4-1.74,1.11-.49,2.21-1.4,3.32-1.41,11.43-.1,22.86-.13,34.29,0a19.88,19.88,0,0,1,19.48,19.56C262.54,179.77,262.48,185.49,262.49,191.2Z" transform="translate(-101 -126.89)" fill="#fff"/><path d="M164.65,288.38c-5.35,0-10.69,0-16,0a19.92,19.92,0,0,1-20-20.15c-.05-11.18-.07-22.37.06-33.55,0-1.13,1.1-2.26,1.68-3.39.51,1.1,1.46,2.2,1.47,3.31.11,10.93,0,21.87.08,32.8,0,10.64,7.09,17.66,17.78,17.69s21.62,0,32.43.08c1.21,0,2.4,1,3.59,1.56-1.17.56-2.33,1.55-3.52,1.59C176.33,288.47,170.49,288.38,164.65,288.38Z" transform="translate(-101 -126.89)" fill="#fff"/><path d="M225.78,288.38c-5.1,0-10.2.13-15.28-.07-1.73-.06-4.94-1.17-4.9-1.44.43-3.06,3-1.7,4.73-1.72,10.31-.13,20.63,0,30.94-.07,10.9,0,17.9-7,17.92-17.94s-.05-21.63.08-32.43c0-1.16,1.11-2.3,1.7-3.44.51,1.09,1.44,2.18,1.45,3.28.11,11.56.17,23.11,0,34.67-.13,10.18-9,18.93-19.15,19.13C237.46,288.47,231.62,288.37,225.78,288.38Z" transform="translate(-101 -126.89)" fill="#fff"/></svg>