<svg id="svg278173" xmlns="http://www.w3.org/2000/svg" viewBox="0 0 440.06 234.84"><g id="title"><g id="path278182"><path d="M269.75,459.62c0,16.52-13,24.19-26.88,24.19s-24.4-8-24.4-8l7.73-14.93a26,26,0,0,0,16.67,7.25c4.29,0,7.92-3.31,7.92-6.78,0-12.56-29.47-4.62-29.47-29.28,0-15.81,11.32-23.43,24-23.43a44.88,44.88,0,0,1,21.54,5.76l-7.18,14.45s-6-4.81-11.6-4.81c-4.18,0-7.92,1.54-7.92,6.14C240.2,440.82,269.75,434,269.75,459.62Z" transform="translate(-218.47 -248.99)" fill="#3457a6"/></g><g id="path278184"><path d="M347.51,410.46v71.37H329.66L296,437.78v44.05H278.17V410.46H296l33.64,44.05V410.46Z" transform="translate(-218.47 -248.99)" fill="#3457a6"/></g><g id="path278186"><path d="M425.8,481.83H406l-16.45-49.35-16.45,49.35H353.25L379,410.46h21Z" transform="translate(-218.47 -248.99)" fill="#3457a6"/><path d="M380.14,469.28a9.34,9.34,0,1,1,9.34,9.64A9.5,9.5,0,0,1,380.14,469.28Z" transform="translate(-218.47 -248.99)" fill="#e034b3"/></g><g id="path278188"><path d="M484.46,434.4c0,20.68-15.66,23.94-23.59,23.94H449.45v23.49H431.61V410.46h29.26C468.8,410.46,484.46,413.72,484.46,434.4Zm-18.88,0c0-6.84-4.48-8.86-9-8.86h-7.13v17.72h7.13C461.1,443.26,465.58,441.24,465.58,434.4Z" transform="translate(-218.47 -248.99)" fill="#3457a6"/></g><g id="path278190"><path d="M516,466h29.58v15.86H497.93v-.05h-12l32.71-55.38H491.38V410.59H528l.08-.13h20.81Z" transform="translate(-218.47 -248.99)" fill="#3457a6"/></g><g id="path278192"><path d="M555.68,481.83V410.46h17.85v71.37Z" transform="translate(-218.47 -248.99)" fill="#3457a6"/></g><g id="path278194"><path d="M658.53,446.27c0,20.75-17.21,37.56-38.44,37.56S581.65,467,581.65,446.27s17.21-37.56,38.44-37.56S658.53,425.53,658.53,446.27Zm-18.41,0a20,20,0,1,0-20,19.57A19.8,19.8,0,0,0,640.12,446.27Z" transform="translate(-218.47 -248.99)" fill="#3457a6"/></g></g><path d="M467.6,316.48c-1,17.39-14.23,28.55-29.32,28.09-17.57-.55-28.46-14.39-28-29.3.48-16,13.87-28.68,29-28C456.45,288,467.41,301.11,467.6,316.48ZM439,290.55c-13.66-.16-25.51,11.59-25.58,25.35s11.72,25.51,25.45,25.49S464,329.94,464.3,316.22,452.83,290.71,439,290.55Z" transform="translate(-218.47 -248.99)" fill="#3457a6"/><path d="M371.93,285.39c0-5.47,0-10.93,0-16.4a19.9,19.9,0,0,1,19.85-20q17-.12,33.92,0c1.11,0,2.21.92,3.31,1.41-1.13.61-2.25,1.73-3.39,1.74-10.93.14-21.86.06-32.8.09-10.45,0-17.56,7.1-17.59,17.5,0,10.93,0,21.86-.09,32.79,0,1.18-1.07,2.35-1.64,3.52-.53-1.2-1.48-2.39-1.51-3.6C371.84,296.82,371.93,291.1,371.93,285.39Z" transform="translate(-218.47 -248.99)" fill="#3457a6"/><path d="M505.84,285.76c0,5.59.1,11.18-.07,16.77,0,1.21-1,2.4-1.51,3.6-.57-1.17-1.62-2.33-1.64-3.51-.12-10.81-.05-21.62-.08-32.43s-7-17.85-18-17.87-21.62.05-32.43-.09c-1.14,0-2.26-1.13-3.39-1.74,1.1-.49,2.2-1.4,3.31-1.41,11.43-.1,22.87-.13,34.3,0a19.88,19.88,0,0,1,19.48,19.56C505.9,274.32,505.84,280,505.84,285.76Z" transform="translate(-218.47 -248.99)" fill="#3457a6"/><path d="M408,382.93c-5.34,0-10.69,0-16,0a19.92,19.92,0,0,1-20-20.15c-.05-11.18-.06-22.37.07-33.55,0-1.13,1.09-2.26,1.68-3.39.51,1.11,1.46,2.2,1.47,3.31.11,10.94,0,21.87.07,32.8,0,10.64,7.1,17.67,17.79,17.69s21.62,0,32.43.08c1.2,0,2.39,1,3.59,1.57-1.17.55-2.33,1.55-3.52,1.58C419.68,383,413.84,382.93,408,382.93Z" transform="translate(-218.47 -248.99)" fill="#3457a6"/><path d="M469.13,382.93c-5.09,0-10.19.13-15.28-.07-1.72-.06-4.93-1.17-4.89-1.44.43-3.06,3-1.69,4.73-1.72,10.31-.13,20.62,0,30.93-.07,10.91,0,17.9-7,17.92-17.94s0-21.62.09-32.43c0-1.15,1.1-2.29,1.7-3.44.5,1.09,1.44,2.18,1.45,3.28.1,11.56.17,23.11,0,34.67-.13,10.18-9,18.93-19.15,19.13C480.81,383,475,382.92,469.13,382.93Z" transform="translate(-218.47 -248.99)" fill="#3457a6"/></svg>