<svg id="svg508567" xmlns="http://www.w3.org/2000/svg" viewBox="0 0 435.6 237.45"><g id="title"><g id="path508576"><path d="M373.43,501.83H362.64a23,23,0,0,1-22.22-17L313.29,383.88c-2.39-8.88-11.88-17.43-20.76-17.43h29.61v.18a23,23,0,0,1,19.48,16.86Z" transform="translate(-292.53 -265.66)" fill="#2b2b2b"/><path d="M409.77,383.79a18.69,18.69,0,1,1-18.69-18.69A18.69,18.69,0,0,1,409.77,383.79Z" transform="translate(-292.53 -265.66)" fill="#9b9b9b"/></g><g id="path508578"><path d="M478.2,372.89A16.92,16.92,0,1,1,461.28,356,16.93,16.93,0,0,1,478.2,372.89Z" transform="translate(-292.53 -265.66)" fill="#9b9b9b"/><path d="M490.22,501.51H433.69c8.88,0,16.08-8.55,16.08-17.43V437.71c0-8.88-7.2-17.43-16.08-17.43h-1.35c13.43,0,24.27-4.67,41.8-13.54v77.34C474.14,493,481.34,501.51,490.22,501.51Z" transform="translate(-292.53 -265.66)" fill="#2b2b2b"/></g><g id="path508580"><path d="M613.43,454.39c0,33.58-23.17,48.73-50.08,48.73,12.7,0,24.36-16.32,24.36-48.73s-11.66-48.73-24.36-48.73C590.26,405.66,613.43,420.81,613.43,454.39ZM460.37,265.67c46.73,0,59.81,58.41,59.81,77.33h0V477.4a24.37,24.37,0,0,0,24.37,24.36V348.83h0C544.55,296.53,509.69,265.67,460.37,265.67ZM432.44,289c0-18.71,17.62-23.29,23.06-23.29-14.58,0-42.2,9.37-42.2,33.51s31.44,41.13,78.51,29.15C456.14,333.76,432.44,307.66,432.44,289Zm246.84-10.4c-32.9,0-104.74,29.48-129.21,35.76,49.36-11.47,98.48-19.43,123.44-19.43,30.36,0,54.62,15.59,54.27,32.78C730.47,305.9,717.85,278.55,679.28,278.55ZM550.07,314.31l-3.34.78C547.71,314.9,548.85,314.63,550.07,314.31Z" transform="translate(-292.53 -265.66)" fill="#2b2b2b"/></g><g id="path508582"><path d="M714.4,420.78a14.32,14.32,0,1,1-14.32-14.32A14.32,14.32,0,0,1,714.4,420.78Z" transform="translate(-292.53 -265.66)" fill="#9b9b9b"/><path d="M718.47,477c0,16.44-19.32,25.1-19.32,25.1s7.18-3.47,7.18-11c0-9.33-14.51-12.74-34.63-25.67C652.5,453.05,645.11,445,645.11,430c0-12.18,10.48-18.42,10.48-18.42a21.74,21.74,0,0,0-2.69,9.66C652.9,442.51,718.47,442.51,718.47,477Zm-71.15-5V503.1c0-4.34,4.5-4,10.44-2.38a63.28,63.28,0,0,0,17.67,2.38C661.64,503.1,651.43,489.8,647.32,471.91Z" transform="translate(-292.53 -265.66)" fill="#2b2b2b"/></g></g></svg>