<svg id="Layer_1" data-name="Layer 1" xmlns="http://www.w3.org/2000/svg" viewBox="0 0 206.68 206.69"><path d="M287.36,399.14,274,404.42l.85,1.62-.28.15c-3.39-5-5.94-10.46-8.73-15.84.13.15.27.28.39.43s.22.32.4.59l16.23-8.94-.44-1.19.29-.14L289.19,393l-.23.17-.82-1-16.3,9c.6,1,1.15,1.91,1.72,2.85L291.73,397l.21.33-13.58,14,.52,1.12-.28.16-2.26-3.54.23-.18.85.9,10.08-10.49ZM283.79,384l-16.38,9,1.35,2.45,16.36-9ZM271,399.52l16.39-9L286,388.06l-16.33,9Z" transform="translate(-249.91 -250.67)" fill="#ac9775"/><path d="M318.7,286.83l-3.78,2.54-.21-.28.87-.78-.35.3-4.57-5.12-.18.11,1.79,6.68,1.71-.82.16.28-3.8,2.25a1.83,1.83,0,0,1,0-.38c1.54-.6,1.2-1.64,1-2.95a15.92,15.92,0,0,0-6.41-10.76,36.33,36.33,0,0,1-3.13-3l-1.19.52-.15-.27,3.73-2.23.17.22-.62.56,4.6,5.15.26-.17L306.8,272l-1.7.83-.15-.3,7.72-4.54.16.26-1,.79,9.42,15.91,1.17-.45.18.33-3.95,2.05,1-1-9.47-16c-.76.44-1.35.85-2,1.14-.83.37-.93.88-.68,1.71.62,2.06,1.14,4.16,1.71,6.24a2.55,2.55,0,0,0,.48,1.07c2.51,2.45,5.06,4.87,7.5,7.22Z" transform="translate(-249.91 -250.67)" fill="#ac9775"/><path d="M354.89,259.74l-1.09-.18v-.19h8.72l0,.14-1.12.24v18.46l1.06.28,0,.14h-8.65l0-.16,1.07-.22Zm2,0v18.58h2.54V259.7Z" transform="translate(-249.91 -250.67)" fill="#ac9775"/><path d="M304.62,435.57,297,430.52l.13-.22,1.16.53q5-7.71,10.08-15.53l-1-.86.17-.26,7.51,4.89-.13.26-1.17-.53c-3.34,5.13-6.7,10.31-10,15.37l.77,1.42ZM310,416.2l-10.18,15.7,2.34,1.5c3.42-5.27,6.77-10.42,10.16-15.66Z" transform="translate(-249.91 -250.67)" fill="#ac9775"/><path d="M448,347.64v4.15l-.23,0-.24-1.22H428.92v2.7h18.59l.18-1,.19,0v4.21l-.2,0-.24-1.26H428.93l-.16,1.07h-.19v-8.89l.19,0,.3,1.17h18.47l.22-1Z" transform="translate(-249.91 -250.67)" fill="#ac9775"/><path d="M278.24,347.17v4.21l-.21,0-.27-1.2L271.11,352v.25l6.67,1.89.17-1.84h.22v4.22l-.24,0-.13-1.86c-2.6-.74-5.21-1.5-7.82-2.2a2.71,2.71,0,0,0-1.28.14c-2.74.73-5.46,1.52-8.21,2.21-.91.23-1.6.48-1.61,1.6v-4.26l.16,0,.25,1.2,6.64-1.79,0-.23-6.68-1.92-.2,1.85h-.2V347c.17.13.27.18.26.22-.22,1.37.51,1.76,1.73,2.23a16.21,16.21,0,0,0,12.85.08,17.83,17.83,0,0,1,2.53-.7C277.73,348.4,277.73,348.4,278.24,347.17Z" transform="translate(-249.91 -250.67)" fill="#ac9775"/><path d="M286.22,319.83c.15-.67.55-1.43.37-2s-1-1-1.44-1.56a14.18,14.18,0,0,0-10-5.63,18.82,18.82,0,0,1-3.37-.82c-.94-.3-1.7-.35-2.13.81l-.29-.25,2.12-3.76.26.09-.38,1.2,6.6,1.63-4.82-4.91-.94,1.4-.28-.18,2.11-3.77.33.17-.83,1.61c1.94,2,3.84,3.91,5.76,5.82a2,2,0,0,0,1,.42c3.22.81,6.44,1.59,9.72,2.39l.77-1,.25.15-2.08,3.71-.26-.12.41-1.17-6.83-1.69,5,5,.92-1.42.3.17-2.11,3.78Z" transform="translate(-249.91 -250.67)" fill="#ac9775"/><path d="M353.32,278.65h-4.19l0-.14,1.18-.32q-.93-3.33-1.84-6.64h-.23l-1.87,6.72,1.74.16v.18H344c0-.06.07-.18.09-.18,1.62.29,1.8-.84,2.27-2a15.73,15.73,0,0,0,0-12.51,21.68,21.68,0,0,1-.81-2.89c-.21-.84-.3-1.76-1.56-1.64h4.17l.05.13-1.18.28,1.83,6.56h.27l1.84-6.59-1.83-.16v-.21h4.26c0,.09-.08.21-.11.2-1.63-.26-1.87.84-2.35,2.06a15.59,15.59,0,0,0,0,12.4,23.55,23.55,0,0,1,.79,2.76C352,277.65,351.94,278.75,353.32,278.65Z" transform="translate(-249.91 -250.67)" fill="#ac9775"/><path d="M304.62,435.59l2.19.3,12.53-14.51.29.19c-.09.41-.18.82-.29,1.22q-2.29,8.07-4.61,16.14c-.27.91-.55,1.73.72,2.23l-.28.23-3.69-2.07.12-.26,1.17.41,3.9-14-.24-.11c-3.07,3.61-6.13,7.23-9.27,10.94l1.52,1.06-.13.22-3.93-2Z" transform="translate(-249.91 -250.67)" fill="#ac9775"/><path d="M354.43,434.05c-.79,4.68-1.58,9.36-2.39,14.21h1.77v.36l-4.22.2c.14-.23.21-.4.25-.39,1.58.23,1.8-.75,2-2,.89-5.36,1.89-10.7,2.85-16.05a2.36,2.36,0,0,1,.55-1.21q2.5,9.44,5,18.88l1.22.15v.22h-4.15l-.06-.08,1.16-.29q-1.89-7-3.79-14Z" transform="translate(-249.91 -250.67)" fill="#ac9775"/><path d="M391.35,419l13.38,14.15,1.21-.43.11.25-3.67,2.11-.17-.27,1-.75c-3.37-3.54-6.72-7-10.07-10.54l-.2.12c1.56,4.52,3.11,9,4.7,13.65l1.68-.81.14.3-3.66,2.12-.18-.29,1.54-1q-3-9.15-6.13-18.38Z" transform="translate(-249.91 -250.67)" fill="#ac9775"/><path d="M428.89,360l-.13,1h-.2v-4.24h.19L429,358h18.49l.23-1h.19v4.25l-.22,0-.19-1.26Z" transform="translate(-249.91 -250.67)" fill="#ac9775"/><path d="M348.09,448.24l1.21.21v.14H345v-.27l1.24-.18c.25-6.1.51-12.23.76-18.43l-1.2-.3,0-.09h4.21v.25l-1.23.18C348.59,435.9,348.34,442,348.09,448.24Z" transform="translate(-249.91 -250.67)" fill="#ac9775"/><path d="M389,287.31l1.13.52,9.27-16.05-1-.8.16-.27,3.75,2.16-.12.27-1.21-.46-9.26,16,1,.8-.16.27-3.78-2.19Z" transform="translate(-249.91 -250.67)" fill="#ac9775"/><path d="M420.59,387.24c.76-1.3,1.52-2.59,2.27-3.89l.25.12-.49,1.22,16.08,9.17.82-1,.25.16-2.14,3.75-.29-.14.48-1.18-15.95-9.09-1.27.86Z" transform="translate(-249.91 -250.67)" fill="#ac9775"/><path d="M435.19,401.24,433,405.1l-.27-.14.46-1.21-16.08-9.17-.78,1-.25-.15,2.12-3.74.29.14L418,393l16,9.1,1.25-.84Z" transform="translate(-249.91 -250.67)" fill="#ac9775"/><path d="M435.08,306.77l2.46,3.62-.31.24-.81-1-16.06,9.19.47,1.2-.39.18-1.89-4.14,0,0,1,1.12,16-9.16-.36-1.34Z" transform="translate(-249.91 -250.67)" fill="#ac9775"/><path d="M435.19,401.24l.16-1.71-16-9.11-.71,1-.25-.14,2.18-4.06h0c-.05.51-.09,1-.15,1.71L436.38,398l.82-1,.21.14-2.22,4.09Z" transform="translate(-249.91 -250.67)" fill="#ac9775"/><path d="M416,395.94l-.41,1.22,16,9.14.83-1,.23.16c-.7,1.25-1.41,2.49-2.12,3.74l-.27-.11.45-1.21-16.11-9.18-.72,1-.31-.18c.72-1.24,1.43-2.48,2.14-3.72Z" transform="translate(-249.91 -250.67)" fill="#ac9775"/><path d="M418.55,316.08c-.42-.53-.88-1-1.25-1.6a6.29,6.29,0,0,1-1-2.26l.81,1L433.2,304l-.47-1.19.36-.18c.66,1.38,1.33,2.75,2,4.13l0,0-1.05-1.12-16,9.16.45,1.34Z" transform="translate(-249.91 -250.67)" fill="#ac9775"/><path d="M278.11,357.39v4.19l-.2,0-.2-1.19h-18.5l-.19,1.07h-.19v-4.21l.13,0,.29,1.22h18.46l.26-1.08Z" transform="translate(-249.91 -250.67)" fill="#ac9775"/><path d="M254.25,355h-4.34v-2h4.34Z" transform="translate(-249.91 -250.67)" fill="#ac9775"/><path d="M264.27,301.36l3.87,2.26-1.09,1.88-3.87-2.24Z" transform="translate(-249.91 -250.67)" fill="#ac9775"/><path d="M264.28,406.66l-1.09-1.88,3.84-2.25,1.13,1.88Z" transform="translate(-249.91 -250.67)" fill="#ac9775"/><path d="M404,263.92l1.89,1.1c-.75,1.31-1.46,2.53-2.23,3.86l-1.89-1.09C402.54,266.49,403.26,265.25,404,263.92Z" transform="translate(-249.91 -250.67)" fill="#ac9775"/><path d="M401.78,440.24l1.9-1.1,2.23,3.85L404,444.1Z" transform="translate(-249.91 -250.67)" fill="#ac9775"/><path d="M438.4,404.42l1.09-1.89,3.87,2.23c-.38.66-.72,1.24-1.09,1.9Z" transform="translate(-249.91 -250.67)" fill="#ac9775"/><path d="M300.62,265l1.9-1.11,2.23,3.85-1.87,1.12Z" transform="translate(-249.91 -250.67)" fill="#ac9775"/><path d="M354.28,457.37h-2V453h2Z" transform="translate(-249.91 -250.67)" fill="#ac9775"/><path d="M302.86,439.14l1.89,1.09-2.23,3.88L300.63,443Z" transform="translate(-249.91 -250.67)" fill="#ac9775"/><path d="M352.3,250.67h2V255h-2Z" transform="translate(-249.91 -250.67)" fill="#ac9775"/><path d="M456.59,353v2h-4.28v-2Z" transform="translate(-249.91 -250.67)" fill="#ac9775"/><path d="M442.26,301.39l1.07,1.85-3.82,2.23-1.09-1.85Z" transform="translate(-249.91 -250.67)" fill="#ac9775"/><path d="M321.54,255.47l1.42,4.35C321.94,259.13,321.12,256.32,321.54,255.47Z" transform="translate(-249.91 -250.67)" fill="#ac9775"/><path d="M323,448.24l-1.35,4.18-.53-.17,1.36-4.19Z" transform="translate(-249.91 -250.67)" fill="#ac9775"/><path d="M279.52,288l-3.25-3,.36-.38,3.28,2.94Z" transform="translate(-249.91 -250.67)" fill="#ac9775"/><path d="M312.74,263.7l-1.74-4,.48-.2,1.8,4Z" transform="translate(-249.91 -250.67)" fill="#ac9775"/><path d="M279.92,420.44l-3.28,3-.35-.38,3.24-3Z" transform="translate(-249.91 -250.67)" fill="#ac9775"/><path d="M451.51,386.22l-4.2-1.37.16-.49,4.2,1.33Z" transform="translate(-249.91 -250.67)" fill="#ac9775"/><path d="M419.7,427.37c1,1.09,2,2.19,3,3.29l-.41.38-2.95-3.28Z" transform="translate(-249.91 -250.67)" fill="#ac9775"/><path d="M287.25,427.74,284.3,431l-.39-.36,2.95-3.28Z" transform="translate(-249.91 -250.67)" fill="#ac9775"/><path d="M332.05,252.88l.9,4.28-.52.11-.91-4.29Z" transform="translate(-249.91 -250.67)" fill="#ac9775"/><path d="M363.9,452.43l.45,4.33-.51.05-.49-4.32Z" transform="translate(-249.91 -250.67)" fill="#ac9775"/><path d="M292.31,437.51l2.54-3.57c.33.62-1,2.75-2.24,3.76Z" transform="translate(-249.91 -250.67)" fill="#ac9775"/><path d="M419.29,280.27l2.94-3.27.4.36-2.93,3.3Z" transform="translate(-249.91 -250.67)" fill="#ac9775"/><path d="M437.06,293.47l-3.58,2.58-.3-.42,3.56-2.62Z" transform="translate(-249.91 -250.67)" fill="#ac9775"/><path d="M313.28,444.55l-1.84,4.14c-.35-.82.55-3.17,1.5-4.29Z" transform="translate(-249.91 -250.67)" fill="#ac9775"/><path d="M436.74,415l-3.59-2.6.31-.43,3.62,2.59Z" transform="translate(-249.91 -250.67)" fill="#ac9775"/><path d="M414.26,270.54l-2.58,3.56-.42-.29,2.54-3.59Z" transform="translate(-249.91 -250.67)" fill="#ac9775"/><path d="M258.74,395.81l4-1.8.22.5-4,1.82Z" transform="translate(-249.91 -250.67)" fill="#ac9775"/><path d="M454.33,375.75l-4.31-.9.11-.51,4.31.89Z" transform="translate(-249.91 -250.67)" fill="#ac9775"/><path d="M273.34,412.44,269.79,415l-.31-.46,3.57-2.58Z" transform="translate(-249.91 -250.67)" fill="#ac9775"/><path d="M342.73,251.19c.16,1.45.31,2.9.47,4.35l-.51.06-.5-4.33Z" transform="translate(-249.91 -250.67)" fill="#ac9775"/><path d="M395.11,448.53c-.68-1.31-1.26-2.66-1.83-4l.51-.21,1.79,4Z" transform="translate(-249.91 -250.67)" fill="#ac9775"/><path d="M363.36,255.55l.45-4.33.48,0-.39,4.34Z" transform="translate(-249.91 -250.67)" fill="#ac9775"/><path d="M384.13,448.08c.45,1.39.89,2.78,1.34,4.17l-.51.16c-.45-1.4-.91-2.79-1.36-4.19Z" transform="translate(-249.91 -250.67)" fill="#ac9775"/><path d="M373.58,257.15l.91-4.28.54.11c-.31,1.43-.61,2.85-.92,4.28Z" transform="translate(-249.91 -250.67)" fill="#ac9775"/><path d="M393.3,263.52l1.75-4,.48.19-1.73,4Z" transform="translate(-249.91 -250.67)" fill="#ac9775"/><path d="M374.12,450.77c.31,1.42.61,2.85,1,4.45-.8-.57-1.46-3.24-1.26-4.39Z" transform="translate(-249.91 -250.67)" fill="#ac9775"/><path d="M343.21,452.51c-.16,1.44-.32,2.88-.49,4.32l-.5-.07.44-4.32Z" transform="translate(-249.91 -250.67)" fill="#ac9775"/><path d="M292.74,270.25l2.61,3.55-.48.34-2.56-3.59Z" transform="translate(-249.91 -250.67)" fill="#ac9775"/><path d="M286.86,280.66l-3-3.28.38-.35,3,3.25Z" transform="translate(-249.91 -250.67)" fill="#ac9775"/><path d="M426.62,287.59l3.29-3,.35.39L427,288Z" transform="translate(-249.91 -250.67)" fill="#ac9775"/><path d="M269.8,293l3.57,2.61-.31.44-3.59-2.59Z" transform="translate(-249.91 -250.67)" fill="#ac9775"/><path d="M443.79,394l4,1.79-.22.51-4-1.79Z" transform="translate(-249.91 -250.67)" fill="#ac9775"/><path d="M456,343.46l-4.28.45-.06-.49L456,343Z" transform="translate(-249.91 -250.67)" fill="#ac9775"/><path d="M254.78,344l-4.28-.48.05-.49,4.3.4Z" transform="translate(-249.91 -250.67)" fill="#ac9775"/><path d="M429.93,423.38l-3.3-2.95L427,420l3.29,3Z" transform="translate(-249.91 -250.67)" fill="#ac9775"/><path d="M259.06,323.68l-4.38-1.41A5.43,5.43,0,0,1,259.06,323.68Z" transform="translate(-249.91 -250.67)" fill="#ac9775"/><path d="M411.68,433.91l2.58,3.57-.43.3q-1.32-1.75-2.62-3.53Z" transform="translate(-249.91 -250.67)" fill="#ac9775"/><path d="M456,365.05l-4.3-.44.05-.49,4.3.43Z" transform="translate(-249.91 -250.67)" fill="#ac9775"/><path d="M252.16,375.24l4.25-.91.11.5-4.25.93Z" transform="translate(-249.91 -250.67)" fill="#ac9775"/><path d="M254.88,385.7l4.17-1.34.16.49L255,386.21Z" transform="translate(-249.91 -250.67)" fill="#ac9775"/><path d="M262.76,314l-4-1.78.17-.42a30.15,30.15,0,0,1,4.07,1.7Z" transform="translate(-249.91 -250.67)" fill="#ac9775"/><path d="M385.45,255.78c-.44,1.39-.89,2.78-1.33,4.17l-.51-.15c.44-1.39.88-2.77,1.33-4.16Z" transform="translate(-249.91 -250.67)" fill="#ac9775"/><path d="M250.5,364.59l4.45-.53C254.3,364.82,251.64,365.19,250.5,364.59Z" transform="translate(-249.91 -250.67)" fill="#ac9775"/><path d="M333,450.88l-.9,4.23-.48-.09.82-4.23Z" transform="translate(-249.91 -250.67)" fill="#ac9775"/><path d="M450.06,333.18l4.23-.9.11.48-4.23.93Z" transform="translate(-249.91 -250.67)" fill="#ac9775"/><path d="M252.26,332.28l4.25.9-.11.53-4.25-.9Z" transform="translate(-249.91 -250.67)" fill="#ac9775"/><path d="M447.8,312.21l-4,1.78-.21-.47,4-1.79Z" transform="translate(-249.91 -250.67)" fill="#ac9775"/><path d="M447.36,323.2l4.12-1.39.16.5-4.13,1.34Z" transform="translate(-249.91 -250.67)" fill="#ac9775"/></svg>