<svg id="svg348548" xmlns="http://www.w3.org/2000/svg" viewBox="0 0 214.92 214.92"><circle cx="107.46" cy="107.46" r="107.46" fill="#c1c1b1"/><path id="path348557" d="M202,183.92c-42.77,0-70.63,27.65-70.63,77.11s27.86,77.11,70.63,77.11c-26.57,0-38.88-35.42-38.88-77.11S175.38,183.92,202,183.92Zm51.62,41H254v-41h-1.51c0,5.61-4.32,5.4-12.31,3.24a79.68,79.68,0,0,0-23.11-3.24C235.21,183.92,248.17,201.41,253.57,225Zm-36.5,113.18a79.68,79.68,0,0,0,23.11-3.24c8-1.94,13.82-2.37,13.82,3.24v-41C248.6,320.65,235.21,338.14,217.07,338.14Z" transform="translate(-85.2 -153.57)" fill="#f6f3eb"/></svg>