<svg id="svg348548" xmlns="http://www.w3.org/2000/svg" viewBox="0 0 396.1 265.25"><path id="path348557" d="M382.76,362.79c-42.76,0-70.63,27.65-70.63,77.11S340,517,382.76,517c-26.56,0-38.88-35.42-38.88-77.11S356.2,362.79,382.76,362.79Zm51.63,41h.43v-41h-1.51c0,5.62-4.32,5.4-12.31,3.24a79.75,79.75,0,0,0-23.12-3.24C416,362.79,429,380.29,434.39,403.83ZM397.88,517A79.75,79.75,0,0,0,421,513.77c8-1.94,13.82-2.37,13.82,3.24V476C429.42,499.52,416,517,397.88,517Z" transform="translate(-312.13 -251.77)" fill="#c1c1b1"/><path id="path348559" d="M378,277.69c0-20.74,19.66-25.92,25.71-25.92-16.2,0-47.09,10.36-47.09,37.36s35.21,46,87.69,32.62c-40,6.05-66.31-23.11-66.31-44.06ZM503.29,496.06V344.65c0-57.46-37.8-91.8-91.58-92.88,50.11,1.94,64.37,65.66,64.37,86.4V496.06c0,9.94-8.21,19.44-17.93,19.44h63.07c-9.94,0-17.93-9.5-17.93-19.44ZM653.63,266.24c-36.51,0-116.21,32.61-143.86,39.74,54.87-12.74,109.73-21.6,137.59-21.6,33.92,0,60.92,17.5,60.48,36.72,3-24.41-11-54.86-54.21-54.86ZM509.77,306c-1.51.43-2.81.65-4.1,1.08C506.75,306.85,508.26,306.41,509.77,306Z" transform="translate(-312.13 -251.77)" fill="#b2a284"/><path id="path348561" d="M581.25,496.06V349.18c-19.66,9.94-31.76,15.12-46.66,15.12h1.51c9.94,0,17.93,9.51,17.93,19.44V496.06c0,9.94-8,19.44-17.93,19.44h63.07C589.24,515.5,581.25,506,581.25,496.06Zm46.22-69.55-1.94,2.59c8.42-9.93,18.36-19.44,33.48-19.44H621.64C630.71,409.66,633.09,417.44,627.47,426.51Zm17.28,69.55-32.83-51.62-19,20.95,19.44,30.67c6.26,9.94,1.08,19.44-8.86,19.44h66.1c-9.94,0-18.58-9.72-24.84-19.44Z" transform="translate(-312.13 -251.77)" fill="#a28357"/></svg>