<svg id="Layer_1" data-name="Layer 1" xmlns="http://www.w3.org/2000/svg" viewBox="0 0 297.12 297.12"><circle cx="148.56" cy="148.56" r="148.56" fill="#126d39"/><path d="M203.38,326.11c-14.86.54-28-5.68-38.89-16.53-10.58-10.52-15.62-24-15.56-38.5a55.48,55.48,0,0,1,55.14-55.14,53.4,53.4,0,0,1,39.25,16.44c10.52,10.81,16.06,23.93,16,38.94-.08,15.43-5.66,28.9-17,39.67C231.68,321.12,219,326.4,203.38,326.11Zm.77-6.4c26.64.21,48.18-22,48.52-47.93.36-26.72-22.26-48.81-48.22-49-26.29-.17-48.72,22.52-48.72,48.35C155.72,297.64,178.12,320.1,204.15,319.71Z" transform="translate(-112.97 -177)" fill="#fff" stroke="#fff" stroke-miterlimit="10" stroke-width="5"/><path d="M374.13,393.27c.18,8.45-5.57,21.49-16.29,32.3s-23.92,15.85-38.73,15.9c-15.21,0-28.58-5.71-39.38-16.58a55,55,0,0,1,.53-77.72,54.12,54.12,0,0,1,39-15.86C349.69,331.28,374.29,355.94,374.13,393.27Zm-54.8-55.33c-26.36-.68-48.55,22.27-48.64,48-.1,26.62,22.31,48.59,48,48.81,26.78.23,48.91-22.35,49-48.29C367.75,360,345.39,337.47,319.33,337.94Z" transform="translate(-112.97 -177)" fill="#fff" stroke="#fff" stroke-miterlimit="10" stroke-width="5"/><path d="M216.49,429.2c1.7-1.37,3.38-2.77,5.11-4.09,3.34-2.55,6.75-5,10-7.61.64-.51.86-1.56,1.27-2.36a8.66,8.66,0,0,0-2.34-.93c-15-1-27.78-6.68-37.74-18A46.73,46.73,0,0,1,183.51,380c-1.06-3.23-2.42-6.38-3.26-9.66a66.13,66.13,0,0,1-1.52-9.41c-.44-4.15-.7-8.33-1-12.5a11.15,11.15,0,0,1,.39-2.46l.56,0c.37,2.53.83,5,1.1,7.58.54,5,.41,10.09,1.55,14.9,2.84,11.91,7.48,23.07,17,31.38a47.34,47.34,0,0,0,20.38,10.83c3.82.9,7.68,1.66,11.55,2.27.85.14,2.5-.45,2.61-1A4.25,4.25,0,0,0,232,409c-3.24-4.41-6.59-8.72-9.88-13.09a17.34,17.34,0,0,1-1-1.78l.52-.48a8.84,8.84,0,0,1,1.72,1.33c4,5.17,7.91,10.37,11.8,15.59a5.16,5.16,0,0,1-1,7.06c-3.21,2.57-6.56,5-9.87,7.41q-2.9,2.13-5.85,4.19a7.57,7.57,0,0,1-1.43.6Z" transform="translate(-112.97 -177)" fill="#fff" stroke="#fff" stroke-miterlimit="10" stroke-width="5"/><path d="M306.82,227c-1.76,1.43-3.48,2.93-5.29,4.29-3.23,2.44-6.56,4.74-9.75,7.22-.66.51-.91,1.54-1.35,2.33.8.42,1.58,1.16,2.38,1.19a52.69,52.69,0,0,1,31.76,12.13,46.72,46.72,0,0,1,13.82,18.58c1.5,3.62,2.53,7.44,3.81,11.15,1.87,5.41,2.42,11,2.69,16.7.11,2.37.55,4.73.77,7.1a9.52,9.52,0,0,1-.23,2l-.76.05a39.49,39.49,0,0,1-1-4.87c-.26-2.91-.08-5.87-.46-8.76-.46-3.44-1.24-6.84-2-10.22a67,67,0,0,0-2.42-8.78c-3.67-9.53-9-17.87-17.58-23.82-4.95-3.44-10.13-6.3-16.1-7.52-4-.82-7.93-1.75-11.93-2.42-.83-.14-2.48.47-2.6,1a4.29,4.29,0,0,0,.9,3c3.21,4.33,6.55,8.56,9.82,12.85a15.13,15.13,0,0,1,1.13,2l-.53.49a6.07,6.07,0,0,1-1.41-1c-2.91-3.81-5.77-7.66-8.65-11.5-1.07-1.43-2.23-2.81-3.23-4.3-1.89-2.83-1.69-5.2,1-7.33,3.9-3.15,8-6.05,12-9.07,1-.76,2-1.58,3-2.3a12.32,12.32,0,0,1,1.84-.86Z" transform="translate(-112.97 -177)" fill="#fff" stroke="#fff" stroke-miterlimit="10" stroke-width="5"/><path d="M214,244.85a53.39,53.39,0,0,1,6.07.08c.75.08,1.94,1,2,1.61a9.6,9.6,0,0,1-.88,3.53c0,.15-.66.18-1,.16-3.42-.2-6.88-.86-10.24-.54-4.7.45-8.07,3.43-10.31,7.48-1,1.87-.06,3.27,2.09,3.34,2.92.11,5.86.1,8.78,0,1.65,0,2.38.6,2.24,2.25a13.76,13.76,0,0,0,0,2c.08,1.47-.64,2-2,2-3.38,0-6.76,0-10.14,0-3,0-3.57.57-3.61,3.53-.07,4.76.21,5,5.05,5.07,2.78,0,5.56.06,8.34,0,1.69,0,2.42.53,2.43,2.33,0,4.37.11,4.36-4.17,4.37-2.33,0-4.66-.05-7,0-2.08.06-2.78,1.21-2.07,3.15,1.26,3.43,7.19,7.73,10.85,7.82,2.1.05,4.21.12,6.3,0a12.7,12.7,0,0,0,3.61-.92c1.3-.51,2-.26,2.27,1.14.48,2.51-.48,4.33-3.05,4.41-4.83.15-9.74,1.05-14.47-.77a21.71,21.71,0,0,1-12.74-12.27,3.5,3.5,0,0,0-3.67-2.57c-1.11,0-2.75.43-2.69-1.45s-1.15-4.44,1.65-5.22,2.21-3,2.27-4.87a3.37,3.37,0,0,0-2.67-3.82c-2.49-.75-1.05-3.06-1.19-4.66,0-.43,1.27-1.45,1.92-1.42,2.56.14,3.93-.9,4.87-3.29,2.57-6.55,7.73-10.35,14.27-12.25,2.17-.63,4.61-.33,6.93-.45Z" transform="translate(-112.97 -177)" fill="#fff" stroke="#fff" stroke-miterlimit="10" stroke-width="5"/><path d="M330.21,365.85,329,368.3c-3.48-.5-6.78-1.49-10-1.32-6,.31-10.24,6.27-6.85,11.07,1.45,2.05,4,3.49,6.36,4.68,4.19,2.14,9,3.5,11.63,7.65,1.55,2.39,3,4.85,1.69,8.39-1.23,3.33-2.77,5.87-5.8,7.52a21.17,21.17,0,0,1-3.71,1.54,2.53,2.53,0,0,0-1.87,2.91,19.54,19.54,0,0,1-.09,3.59,1.55,1.55,0,0,1-1.11,1,1.61,1.61,0,0,1-1.19-1,12.65,12.65,0,0,1-.13-2.69c-.05-2.63-.61-3.23-3.22-3.68a45.89,45.89,0,0,1-5.45-1.15,3.82,3.82,0,0,1-1.9-1.61c-.26-.43.12-1.24.21-1.87.56.09,1.12.15,1.67.28,2.86.68,5.7,1.76,8.59,2,3.64.26,6.54-1.67,8.75-4.56,2.84-3.73.52-9.7-3.44-11.7-2.86-1.45-5.81-2.71-8.65-4.19a25.33,25.33,0,0,1-4.11-2.7c-5.68-4.52-3.79-13.79,2.63-16.79a2.3,2.3,0,0,1,.43-.12c3.54-.8,5.44-2.68,4.67-6.6-.1-.51.7-1.2,1.08-1.81a9,9,0,0,1,1.27,1.92,6.38,6.38,0,0,1,.06,2c0,2,1.08,2.92,3,3.24C325.59,364.69,327.66,365.26,330.21,365.85Z" transform="translate(-112.97 -177)" fill="#fff" stroke="#fff" stroke-miterlimit="10" stroke-width="5"/></svg>