<svg xmlns:dc="http://purl.org/dc/elements/1.1/" xmlns:cc="http://creativecommons.org/ns#" xmlns:rdf="http://www.w3.org/1999/02/22-rdf-syntax-ns#" xmlns:svg="http://www.w3.org/2000/svg" xmlns="http://www.w3.org/2000/svg" xmlns:xlink="http://www.w3.org/1999/xlink" id="svg496191" version="1.1" viewBox="227.32 342.04 569.36 83.93">
  <metadata id="metadata496197" fill="#FFFFFF">
    <rdf:rdf fill="#FFFFFF">
      <cc:work rdf:about="" fill="#FFFFFF">
        <dc:format fill="#FFFFFF">image/svg+xml</dc:format>
        <dc:type rdf:resource="http://purl.org/dc/dcmitype/StillImage" fill="#FFFFFF"/>
      </cc:work>
    </rdf:rdf>
  </metadata>
  <defs id="defs496195"/>
  <linearGradient spreadMethod="pad" y2="30%" x2="-10%" y1="120%" x1="30%" id="3d_gradient2-logo-6ed4738a-2416-4a34-915d-51338a2c7d85" fill="#FFFFFF">
    <stop id="stop496172" stop-opacity="1" stop-color="#ffffff" offset="0%" fill="#FFFFFF"/>
    <stop id="stop496174" stop-opacity="1" stop-color="#000000" offset="100%" fill="#FFFFFF"/>
  </linearGradient>
  <linearGradient gradientTransform="rotate(-30)" spreadMethod="pad" y2="30%" x2="-10%" y1="120%" x1="30%" id="3d_gradient3-logo-6ed4738a-2416-4a34-915d-51338a2c7d85" fill="#FFFFFF">
    <stop id="stop496177" stop-opacity="1" stop-color="#ffffff" offset="0%" fill="#FFFFFF"/>
    <stop id="stop496179" stop-opacity="1" stop-color="#cccccc" offset="50%" fill="#FFFFFF"/>
    <stop id="stop496181" stop-opacity="1" stop-color="#000000" offset="100%" fill="#FFFFFF"/>
  </linearGradient>
  <g id="logo-group" fill="#FFFFFF">
    <image xlink:href="" id="container" x="272" y="144" width="480" height="480" transform="translate(0 0)" style="display: none;" fill="#FFFFFF"/>
    <g id="logo-center" transform="translate(0 0)" fill="#FFFFFF">
      <image xlink:href="" id="icon_container" x="0" y="0" style="display: none;" fill="#FFFFFF"/>
      <g id="slogan" style="font-style:normal;font-weight:400;font-size:32px;line-height:1;font-family:'Roboto Slab';font-variant-ligatures:none;text-align:center;text-anchor:middle" transform="translate(0 0)" fill="#FFFFFF"/>
      <g id="title" style="font-style:normal;font-weight:normal;font-size:72px;line-height:1;font-family:'Brandmark Sans 20 Dots Color';font-variant-ligatures:normal;text-align:center;text-anchor:middle" transform="translate(0 0)" fill="#FFFFFF">
        <g id="path496200" aria-label="E" transform="translate(0 325.70776) translate(227.32417644999998 16.44872000000001) scale(1.67) translate(-405.39837 50.184)" fill="#FFFFFF"> <path class="c1" d="M103.63833,83.95852c-3.02441,0-10.00903,0.28784-10.00903,11.30493v11.521 c0,11.08887,6.98462,11.30493,10.00903,11.30493h11.80908v8.0647h-11.80908c-4.03247,0-18.07373-1.00806-18.07373-21.0979V97.0635 c0-20.0896,14.04126-21.09766,18.07373-21.09766h11.80908v7.99268H103.63833z" transform="translate(319.83377 -126.14984)" stroke-width="0px" stroke-linejoin="miter" stroke-miterlimit="2" fill="#57372E" stroke="#57372E"/> <path class="c3" d="M101.47817,101.02395c0-2.23218,1.80005-4.03247,4.03223-4.03247s4.03223,1.80029,4.03223,4.03247 s-1.80005,4.03223-4.03223,4.03223S101.47817,103.25613,101.47817,101.02395z" transform="translate(319.83377 -126.14984)" stroke-width="0px" stroke-linejoin="miter" stroke-miterlimit="2" fill="#C3A79C" stroke="#C3A79C"/> </g>
        <g id="path496202" aria-label="Z" transform="translate(0 325.70776) translate(323.13521604999994 16.44872000000001) scale(1.67) translate(-437.77025 50.184)" fill="#FFFFFF"> <path class="c1" d="M117.85933,118.08938v8.0647H81.85591l23.04199-42.19556H93.01704v-7.99268h25.05859l-23.04199,42.12354 C95.03363,118.08937,117.85933,118.08937,117.85933,118.08938z" transform="translate(355.91434 -126.14984)" stroke-width="0px" stroke-linejoin="miter" stroke-miterlimit="2" fill="#57372E" stroke="#57372E"/> <path class="c3" d="M81.85591,79.99807c0-2.23218,1.80029-4.03223,4.03271-4.03223c2.23193,0,4.03223,1.80005,4.03223,4.03223 s-1.80029,4.03247-4.03223,4.03247C83.6562,84.03054,81.85591,82.23025,81.85591,79.99807z" transform="translate(355.91434 -126.14984)" stroke-width="0px" stroke-linejoin="miter" stroke-miterlimit="2" fill="#C3A79C" stroke="#C3A79C"/> </g>
        <g id="path496204" aria-label="T" transform="translate(0 325.70776) translate(427.09062855 16.44872000000001) scale(1.67) translate(-475.019 50.184)" fill="#FFFFFF"> <path class="c1" d="M104.07012,75.96584v50.18822h-7.99268V83.95852H82.32403v-7.99268 C82.32403,75.96584,104.07012,75.96584,104.07012,75.96584z" transform="translate(392.69497 -126.14984)" stroke-width="0px" stroke-linejoin="miter" stroke-miterlimit="2" fill="#57372E" stroke="#57372E"/> <path class="c3" d="M109.7586,79.99807c0-2.23218,1.80029-4.03223,4.03223-4.03223c2.23242,0,4.03223,1.80005,4.03223,4.03223 s-1.7998,4.03247-4.03223,4.03247C111.55889,84.03054,109.7586,82.23025,109.7586,79.99807z" transform="translate(392.69497 -126.14984)" stroke-width="0px" stroke-linejoin="miter" stroke-miterlimit="2" fill="#C3A79C" stroke="#C3A79C"/> </g>
        <g id="path496206" aria-label="E" transform="translate(0 325.70776) translate(530.1160514500001 16.44872000000001) scale(1.67) translate(-511.71087 50.184)" fill="#FFFFFF"> <path class="c1" d="M103.63833,83.95852c-3.02441,0-10.00903,0.28784-10.00903,11.30493v11.521 c0,11.08887,6.98462,11.30493,10.00903,11.30493h11.80908v8.0647h-11.80908c-4.03247,0-18.07373-1.00806-18.07373-21.0979V97.0635 c0-20.0896,14.04126-21.09766,18.07373-21.09766h11.80908v7.99268H103.63833z" transform="translate(426.14627 -126.14984)" stroke-width="0px" stroke-linejoin="miter" stroke-miterlimit="2" fill="#57372E" stroke="#57372E"/> <path class="c3" d="M101.47817,101.02395c0-2.23218,1.80005-4.03247,4.03223-4.03247s4.03223,1.80029,4.03223,4.03247 s-1.80005,4.03223-4.03223,4.03223S101.47817,103.25613,101.47817,101.02395z" transform="translate(426.14627 -126.14984)" stroke-width="0px" stroke-linejoin="miter" stroke-miterlimit="2" fill="#C3A79C" stroke="#C3A79C"/> </g>
        <g id="path496208" aria-label="X" transform="translate(0 325.70776) translate(629.77477105 16.32848) scale(1.67) translate(-546.38675 50.256)" fill="#FFFFFF"> <path class="c1" d="M118.03973,114.48904h-7.99268c-0.28809-9.79272-6.40869-10.729-9.50488-10.80103h-0.50391 c-0.14404,0-0.28809,0-0.50439,0c-3.16797,0.07202-9.50488,1.08032-9.50488,11.521v10.94507h-8.06445v-9.14478 c0-9.07275,2.88037-14.25732,6.40869-17.20947c-3.52832-2.95239-6.40869-8.13672-6.40869-17.20947v-6.62451h8.06445v8.42456 c0,10.44092,6.33691,11.44897,9.50488,11.521h0.50439c0.14404,0,0.28809,0,0.50391,0 c3.16846-0.07202,9.57666-1.08008,9.57666-11.521v-8.49658l7.99316,0.07202v6.62451c0,9.07275-2.88037,14.25708-6.40869,17.20947 C114.87128,102.46413,117.53583,106.92849,118.03973,114.48904z" transform="translate(464.42221 -126.14983)" stroke-width="0px" stroke-linejoin="miter" stroke-miterlimit="2" fill="#57372E" stroke="#57372E"/> <path class="c3" d="M109.97528,122.1216c0-2.23218,1.7998-4.03223,4.03223-4.03223c2.23193,0,4.03223,1.80005,4.03223,4.03223 c0,2.23242-1.80029,4.03247-4.03223,4.03247C111.77509,126.15408,109.97528,124.35403,109.97528,122.1216z" transform="translate(464.42221 -126.14983)" stroke-width="0px" stroke-linejoin="miter" stroke-miterlimit="2" fill="#C3A79C" stroke="#C3A79C"/> </g>
        <g id="path496210" aria-label="T" transform="translate(0 325.70776) translate(737.39750355 16.44872000000001) scale(1.67) translate(-585.8315 50.184)" fill="#FFFFFF"> <path class="c1" d="M104.07012,75.96584v50.18822h-7.99268V83.95852H82.32403v-7.99268 C82.32403,75.96584,104.07012,75.96584,104.07012,75.96584z" transform="translate(503.50747 -126.14984)" stroke-width="0px" stroke-linejoin="miter" stroke-miterlimit="2" fill="#57372E" stroke="#57372E"/> <path class="c3" d="M109.7586,79.99807c0-2.23218,1.80029-4.03223,4.03223-4.03223c2.23242,0,4.03223,1.80005,4.03223,4.03223 s-1.7998,4.03247-4.03223,4.03247C111.55889,84.03054,109.7586,82.23025,109.7586,79.99807z" transform="translate(503.50747 -126.14984)" stroke-width="0px" stroke-linejoin="miter" stroke-miterlimit="2" fill="#C3A79C" stroke="#C3A79C"/> </g>
            </g>
      <image xlink:href="" id="icon" x="0" y="0" style="display: none;" fill="#FFFFFF"/>
    </g>
  </g>
</svg>