<svg id="svg437339" xmlns="http://www.w3.org/2000/svg" viewBox="0 0 229 229"><circle cx="114.5" cy="114.5" r="114.5" fill="#d9514a"/><path id="path437360" d="M126.26,175.76H91.57c8.27,0,12,7.91,16,16.18l51.77,109.65h10.24l8.09-17.08ZM239.14,285.41V191.94c0-8.27,6.66-16.18,14.92-16.18h-55c8.27,0,14.92,7.91,14.92,16.18v93.47c0,8.27-6.65,16.18-14.92,16.18h55C245.8,301.59,239.14,293.68,239.14,285.41Zm-131.39,0h-1.26c0,8.27-6.65,16.18-14.92,16.18h31.1c-8.27,0-14.92-7.91-14.92-16.18Z" transform="translate(-58.32 -124.17)" fill="#fff"/></svg>