<svg id="svg437339" xmlns="http://www.w3.org/2000/svg" viewBox="0 0 312.43 187.54"><g id="slogan"><path id="path437347" d="M303.21,414.46c-12.67,0-20.93,8.19-20.93,22.85s8.26,22.85,20.93,22.85c-7.87,0-11.52-10.5-11.52-22.85S295.34,414.46,303.21,414.46Zm15.3,12.16h.13V414.46h-.45c0,1.67-1.28,1.6-3.65,1a23.63,23.63,0,0,0-6.85-1c5.38,0,9.22,5.19,10.82,12.16Zm-10.82,33.54a23.63,23.63,0,0,0,6.85-1c2.37-.58,4.1-.71,4.1,1V448C317,455,313.07,460.16,307.69,460.16Z" transform="translate(-282.28 -272.62)" fill="#d9514a"/><path id="path437349" d="M344.35,414.91H324.76c2.95,0,5.31,2.82,5.31,5.76V454c0,2.94-2.36,5.76-5.31,5.76H339v-39C339,417.73,341.4,414.91,344.35,414.91Zm6.52,44.8h11.2v-11.2A11.51,11.51,0,0,1,350.87,459.71Z" transform="translate(-282.28 -272.62)" fill="#d9514a"/><path id="path437351" d="M387.84,414.46c-12.68,0-20.93,8.19-20.93,22.85s8.25,22.85,20.93,22.85c-7.88,0-11.52-10.5-11.52-22.85S380,414.46,387.84,414.46Zm4.48,0c7.8,0,11.45,10.5,11.45,22.85s-3.65,22.85-11.45,22.85c12.6,0,20.86-8.19,20.86-22.85S404.92,414.46,392.32,414.46Z" transform="translate(-282.28 -272.62)" fill="#d9514a"/><path id="path437353" d="M441,414.46c-12.67,0-20.93,8.19-20.93,22.85s8.26,22.85,20.93,22.85c-7.87,0-11.52-10.5-11.52-22.85S433.09,414.46,441,414.46Zm15.3,12.16h.13V414.46h-.45c0,1.67-1.28,1.6-3.65,1a23.63,23.63,0,0,0-6.85-1c5.38,0,9.22,5.19,10.82,12.16Zm-10.82,33.54a23.63,23.63,0,0,0,6.85-1c2.37-.58,4.1-.71,4.1,1V448C454.79,455,450.82,460.16,445.44,460.16Z" transform="translate(-282.28 -272.62)" fill="#d9514a"/><path id="path437355" d="M476.78,454V420.67c0-2.94,2.37-5.76,5.32-5.76H462.51c2.95,0,5.31,2.82,5.31,5.76V454c0,2.94-2.36,5.76-5.31,5.76H482.1C479.15,459.71,476.78,456.89,476.78,454Zm20-34.05-.57.77c2.49-2.94,5.37-5.76,9.92-5.76H495C497.65,414.91,498.42,417.21,496.75,419.9ZM500.27,454l-11.33-25.73L482.48,436l8,18.11c1.09,2.88-2.5,5.63-5.38,5.63h22.72C504.88,459.71,501.55,456.89,500.27,454Z" transform="translate(-282.28 -272.62)" fill="#d9514a"/><path id="path437357" d="M570.41,454l-16.64-33.28c-1.41-2.94-.45-5.76,2.43-5.76H536.62c2.94,0,6.72,2.82,8.19,5.76L561.45,454c1.47,2.94.51,5.76-2.43,5.76H578.6C575.72,459.71,571.88,456.89,570.41,454Zm-.64-33.28c1.47-2.94,5.5-5.76,8.38-5.76H567.08C570,414.91,571.24,417.73,569.77,420.67ZM545.06,454c-1.47,2.94-5.5,5.76-8.44,5.76h11.07C544.81,459.71,543.59,456.89,545.06,454Z" transform="translate(-282.28 -272.62)" fill="#d9514a"/></g><g id="title"><path id="path437360" d="M318.41,272.62H282.28c8.61,0,12.55,8.24,16.66,16.85l53.92,114.19h10.67L372,385.88ZM436,386.81V289.47c0-8.61,6.93-16.85,15.54-16.85H394.23c8.61,0,15.54,8.24,15.54,16.85v97.34c0,8.61-6.93,16.85-15.54,16.85h57.28C442.9,403.66,436,395.42,436,386.81Zm-136.84,0h-1.31c0,8.61-6.93,16.85-15.54,16.85h32.39c-8.61,0-15.54-8.24-15.54-16.85Z" transform="translate(-282.28 -272.62)" fill="#d9514a"/><path id="path437362" d="M541.18,386.81V351.25l-30.89-61.78c-4.12-8.61-1.31-16.85,7.11-16.85H460.12c8.61,0,19.66,8.24,24,16.85L515,351.25v35.56c0,8.61-6.93,16.85-15.54,16.85h57.29C548.29,403.66,541.18,395.42,541.18,386.81Zm53.54-114.19H562.33c8.61,0,12.17,8.24,7.86,16.85C574.5,280.86,586.29,272.62,594.72,272.62Z" transform="translate(-282.28 -272.62)" fill="#e1b497"/></g></svg>