<svg id="svg60656" xmlns="http://www.w3.org/2000/svg" viewBox="0 0 232 232"><circle cx="116" cy="116" r="116" fill="#3d3d3d"/><path d="M232.61,66.87A96.52,96.52,0,1,1,136,163.31V163A96.58,96.58,0,0,1,232.61,66.87ZM213.7,201.09c1.46,1.3,3.18,4.08,5.08,4.21s5.19-1.85,6-3.7c3.15-7.57,5.56-15.44,8.27-23.19,5.65-16.17,11.42-32.29,16.82-48.54a9.68,9.68,0,0,0-1.08-7.23c-.71-1.16-4.24-1.79-5.63-1-1.74.93-3,3.37-3.75,5.43-8.1,22.87-16.06,45.79-24,68.7C214.85,197.07,214.49,198.45,213.7,201.09ZM179.7,163c6.37-6,12.11-11.42,17.76-16.89,2.93-2.85,7-6,2.74-10.27s-7.33-.72-10.33,2.37c-4.49,4.61-9,9.25-13.69,13.63-3.89,3.61-8.12,6.86-12.09,10.18,10.17,10.37,18.81,19.15,27.4,28,2.74,2.81,5.69,4.12,8.74.85s1.65-6.1-1.19-8.82c-6.16-6-12.21-12-19.33-19.05Zm120.64.28c-9.09-9-17.72-17.53-26.31-26.1-2.76-2.75-5.83-4.95-9.19-1.48s-1.36,6.64,1.62,9.63c5.9,5.94,11.54,12.13,17.7,18.66-6,5.9-12.29,12.16-18.62,18.45-2.58,2.56-3.74,5.6-1,8.5s5.82,2.29,8.5-.38c8.88-8.8,17.72-17.69,27.31-27.28Z" transform="translate(-116.5 -47.39)" fill="#ededed"/></svg>