<svg id="svg60656" xmlns="http://www.w3.org/2000/svg" viewBox="0 0 619.96 134.8"><g id="title"><g id="path60665"><path d="M212.2,18.77V129.66H188.43V18.77Z" transform="translate(-7.61 -7.57)" fill="#2f3129"/></g><g id="path60667"><path d="M269.71,62.33c-16.79,0-26.61,8.24-26.61,23.76,0,14.89,9.34,23.76,26.61,23.76,13,0,21.86-4.91,25.19-14.41h23c-3.65,23.44-21.07,35.8-48.16,35.8-31.68,0-48.79-17-48.79-45.15,0-29.46,18.22-45.15,48.79-45.15,27.88,0,44.51,13.15,48,35.49h-23C291.41,67.4,282.86,62.33,269.71,62.33Z" transform="translate(-7.61 -7.57)" fill="#2f3129"/></g><g id="path60669"><path d="M321.77,86.09c0-29.46,18.22-45.15,48.8-45.15,31.68,0,48.79,17,48.79,45.15,0,29.47-18.22,45.15-48.79,45.15C338.88,131.24,321.77,114.29,321.77,86.09Zm48.8,23.76c16.79,0,26.61-8.23,26.61-23.76,0-14.89-9.35-23.76-26.61-23.76-16.8,0-26.62,8.24-26.62,23.76,0,14.89,9.35,23.76,26.62,23.76Z" transform="translate(-7.61 -7.57)" fill="#2f3129"/></g><g id="path60671"><path d="M425.41,86.09c0-29.46,15-45.14,45.63-45.14,15.68,0,24.71,4.11,29.78,11.72V18.77H523V129.66H500.82v-10.3c-5.23,7.76-14.26,11.88-29.78,11.88C439.36,131.24,425.41,114.29,425.41,86.09Zm48.8,23.77c16.79,0,26.61-8.24,26.61-23.77,0-14.89-9.35-23.76-26.61-23.76-16.8,0-26.62,8.24-26.62,23.76,0,14.89,9.35,23.77,26.62,23.77Z" transform="translate(-7.61 -7.57)" fill="#2f3129"/></g><g id="path60673"><path d="M530,86.09c0-29.46,18.22-45.15,48.8-45.15,31.68,0,48.79,17,48.79,45.15v3.33H552.32c1.27,12.83,10.46,20.43,26.46,20.43,11.56,0,19.8-3.8,23.76-11.4h24c-4.75,21.38-21.86,32.79-47.68,32.79C547.09,131.24,530,114.29,530,86.09Zm72.4-12.83c-4.12-7-12-10.93-23.6-10.93-11.25,0-19.49,3.8-23.61,10.93Z" transform="translate(-7.61 -7.57)" fill="#2f3129"/></g></g><path d="M7.61,75A67.47,67.47,0,1,1,75,142.37,67.47,67.47,0,0,1,7.61,75ZM61.94,101.3c1,.91,2.22,2.85,3.55,2.94a5.25,5.25,0,0,0,4.17-2.58c2.2-5.28,3.89-10.78,5.78-16.19,4-11.29,8-22.56,11.76-33.91a6.77,6.77,0,0,0-.76-5.05c-.49-.81-3-1.25-3.93-.72-1.22.65-2.11,2.35-2.62,3.79-5.67,16-11.23,32-16.82,48C62.75,98.5,62.5,99.46,61.94,101.3ZM38.2,74.71c4.45-4.23,8.45-8,12.39-11.82,2-2,4.86-4.18,1.92-7.17s-5.12-.5-7.22,1.65C42.15,60.6,39,63.84,35.72,66.9,33,69.42,30,71.68,27.26,74c7.11,7.25,13.15,13.38,19.16,19.54,1.91,2,4,2.88,6.11.59s1.15-4.26-.83-6.16C47.38,83.82,43.15,79.59,38.2,74.71Zm84.1.2C115.7,68.3,109.47,62,103.15,55.77c-1.74-1.71-3.85-2-5.59,0s-1.49,3.87.38,5.64c.81.78,1.62,1.56,2.4,2.37,3.61,3.74,7.21,7.49,11.15,11.6-4.56,4.43-9.17,8.82-13.67,13.32-1.72,1.72-2.2,4.15-.14,5.55,1.23.84,4.26.88,5.24,0C109.47,88.07,115.68,81.58,122.3,74.91Z" transform="translate(-7.61 -7.57)" fill="#2f3129"/></svg>