<svg id="svg205131" xmlns="http://www.w3.org/2000/svg" viewBox="0 0 194 194"><circle cx="97" cy="97" r="97" fill="#3a3839"/><path d="M110.1,260.35c0-5.16,0-10.32,0-15.48,0-4.34,3.29-6.14,7.19-4.18,10.58,5.32,21.25,10.49,31.76,15.95,1.51.79,3.17,2.83,3.25,4.37s-1.61,3.49-3.05,4.23c-9.58,5-19.29,9.65-29,14.41-1,.51-2.08,1-3.11,1.44-3.82,1.78-7-.18-7.05-4.52C110,271.16,110.11,265.76,110.1,260.35Zm9.07.59c0,2.21,0,4.43,0,6.64,0,1.88.88,2.57,2.68,1.66,4.46-2.23,8.93-4.43,13.36-6.72a3.11,3.11,0,0,0,1.49-1.65c.09-.31-.82-1.09-1.42-1.39q-6.65-3.42-13.37-6.7c-1.92-.94-2.66-.45-2.74,1.78S119.16,258.81,119.17,260.94Z" transform="translate(-34.33 -163.98)" fill="#fff"/><path d="M94.11,219.22v6.14a16.21,16.21,0,0,1,0,1.71c-.3,2.64-2.54,5-4.6,5s-4.29-2.41-4.36-4.93q-.19-7.85,0-15.69c.06-2.58,2.54-5.06,4.57-5s4.13,2.44,4.4,4.92a4.15,4.15,0,0,1,0,.49v7.36Z" transform="translate(-34.33 -163.98)" fill="#fff"/><path d="M177.65,219.43c0,2.21,0,4.42,0,6.63a7.14,7.14,0,0,1-.3,2.16c-.79,2.39-2.76,4-4.53,3.81a5.27,5.27,0,0,1-4.1-4.64c-.16-5.48-.17-11,0-16.43.07-2.29,2.66-4.57,4.47-4.52,2.11.07,4.31,2.52,4.42,5.15s0,5.23,0,7.84Z" transform="translate(-34.33 -163.98)" fill="#fff"/><path d="M94.1,303c0,2.37.06,4.74,0,7.11-.09,2.74-2.31,5.34-4.47,5.38s-4.48-2.48-4.53-5.27q-.14-7.47,0-14.95c0-2.8,2.26-5.33,4.43-5.37s4.48,2.58,4.57,5.5C94.16,298,94.1,300.48,94.1,303Z" transform="translate(-34.33 -163.98)" fill="#fff"/><path d="M168.6,302.8c0-2.12,0-4.25,0-6.37a12.17,12.17,0,0,1,.05-1.71c.33-2.52,2.51-4.82,4.5-4.8a5.08,5.08,0,0,1,4.38,4.61c.19,5.46.17,10.94,0,16.41-.07,2.28-2.66,4.61-4.46,4.57-2,0-4.17-2.41-4.45-4.86a4.1,4.1,0,0,1,0-.49V302.8Z" transform="translate(-34.33 -163.98)" fill="#fff"/><path d="M168.6,260.85q0-3.06,0-6.12a13.9,13.9,0,0,1,0-1.71c.29-2.44,2.56-4.88,4.47-4.83a5.17,5.17,0,0,1,4.42,4.58c.18,5.46.18,10.94,0,16.4-.07,2.34-2.55,4.6-4.4,4.59-2.07,0-4.28-2.49-4.51-5.07a3.93,3.93,0,0,1,0-.49Z" transform="translate(-34.33 -163.98)" fill="#fff"/><path d="M94.1,261.07a50.78,50.78,0,0,1-.08,7.09,7.81,7.81,0,0,1-2,4.46c-3.17,2.81-6.71-.48-6.85-3.65-.23-5.29-.16-10.61,0-15.91.06-2.44,2.45-4.82,4.42-4.85s4.28,2.46,4.54,5a4,4,0,0,1,0,.49Z" transform="translate(-34.33 -163.98)" fill="#fff"/></svg>