<svg id="svg205131" xmlns="http://www.w3.org/2000/svg" viewBox="0 0 494.85 242.61"><g id="title"><g id="path205140"><path d="M253.26,410h19.32v48.11c0,20-11.7,33.58-36.16,33.58s-36.23-13.7-36.23-33.42V410.13h19.24v47.61c0,10.75,6.25,16.92,17,16.92s16.84-6.17,16.84-16.92V410Z" transform="translate(-200.19 -249.13)" fill="#3a3839"/></g><g id="path205142"><path d="M365.65,436c0,14-9.62,25.89-26.93,25.89H320.2v28.46h-19V410.17h37.52C356.11,410.17,365.65,422,365.65,436Zm-19.32,0c0-5.37-3.85-8.9-9.86-8.9H320.2v17.8h16.27C342.32,444.88,346.25,441.35,346.33,436Z" transform="translate(-200.19 -249.13)" fill="#3a3839"/></g><g id="path205144"><polygon points="256.06 241.2 225.03 161.04 246.6 161.04 275.54 241.2 256.06 241.2" fill="#3a3839"/><polygon points="289.81 209.22 269.61 209.22 286.84 161.04 308.41 161.04 289.81 209.22" fill="#f07056"/></g><g id="path205146"><path d="M590.34,410h19.32v48.11c0,20-11.71,33.58-36.16,33.58s-36.23-13.7-36.23-33.42V410.13h19.24v47.61c0,10.75,6.25,16.92,17,16.92s16.84-6.17,16.84-16.92V410Z" transform="translate(-200.19 -249.13)" fill="#3a3839"/></g><g id="path205148"><path d="M638.28,490.33H695V473.42H638.28Zm0-31.26H695V442.15H638.28Zm0-48.9v16.91H695V410.17Z" transform="translate(-200.19 -249.13)" fill="#3a3839"/></g></g><path d="M427.6,299.94c0-4.86,0-9.73,0-14.59,0-4.09,3.11-5.79,6.78-3.94,10,5,20,9.89,29.93,15,1.43.74,3,2.66,3.07,4.12.07,1.3-1.52,3.28-2.88,4-9,4.67-18.19,9.08-27.31,13.57-1,.48-1.95.91-2.93,1.36-3.6,1.68-6.57-.17-6.64-4.26C427.54,310.14,427.61,305,427.6,299.94Zm8.54.56c0,2.08,0,4.17,0,6.25,0,1.78.83,2.43,2.53,1.57,4.2-2.11,8.42-4.18,12.59-6.34a2.89,2.89,0,0,0,1.4-1.55c.09-.29-.77-1-1.33-1.31-4.18-2.14-8.38-4.26-12.61-6.32-1.81-.88-2.51-.42-2.58,1.68S436.14,298.49,436.14,300.5Z" transform="translate(-200.19 -249.13)" fill="#f07056"/><path d="M412.53,261.18V267a14.37,14.37,0,0,1,0,1.61c-.28,2.49-2.39,4.76-4.34,4.69s-4-2.28-4.1-4.65c-.13-4.93-.12-9.86,0-14.79,0-2.43,2.39-4.77,4.31-4.68s3.89,2.3,4.15,4.64c0,.15,0,.31,0,.46q0,3.47,0,6.94Z" transform="translate(-200.19 -249.13)" fill="#f07056"/><path d="M491.28,261.38c0,2.08,0,4.16,0,6.24a6.66,6.66,0,0,1-.28,2c-.74,2.25-2.61,3.77-4.27,3.59a5,5,0,0,1-3.87-4.38c-.15-5.16-.15-10.33,0-15.48.07-2.16,2.51-4.31,4.22-4.26,2,.06,4.06,2.37,4.17,4.85s0,4.93,0,7.4Z" transform="translate(-200.19 -249.13)" fill="#f07056"/><path d="M412.52,340.16c0,2.23.05,4.47,0,6.7-.08,2.58-2.18,5-4.22,5.08s-4.22-2.35-4.27-5q-.12-7.05,0-14.1c.05-2.63,2.14-5,4.19-5.06s4.22,2.44,4.3,5.19C412.58,335.38,412.52,337.77,412.52,340.16Z" transform="translate(-200.19 -249.13)" fill="#f07056"/><path d="M482.74,340c0-2,0-4,0-6a12.48,12.48,0,0,1,0-1.62c.32-2.37,2.38-4.54,4.25-4.52a4.79,4.79,0,0,1,4.13,4.34c.18,5.16.16,10.32,0,15.48-.06,2.14-2.5,4.34-4.2,4.31-1.89,0-3.93-2.27-4.19-4.59a3.54,3.54,0,0,1,0-.46V340Z" transform="translate(-200.19 -249.13)" fill="#f07056"/><path d="M482.74,300.42c0-1.93,0-3.85,0-5.78a12.37,12.37,0,0,1,0-1.61c.27-2.3,2.41-4.59,4.21-4.55a4.89,4.89,0,0,1,4.17,4.32q.25,7.72,0,15.46c-.07,2.2-2.41,4.33-4.15,4.32-1.95,0-4-2.34-4.25-4.77a3.7,3.7,0,0,1,0-.47Z" transform="translate(-200.19 -249.13)" fill="#f07056"/><path d="M412.52,300.62a46.48,46.48,0,0,1-.08,6.68,7.36,7.36,0,0,1-1.91,4.2c-3,2.65-6.32-.44-6.45-3.43-.22-5-.15-10,0-15,.06-2.3,2.31-4.54,4.17-4.58s4,2.32,4.28,4.74a3.62,3.62,0,0,1,0,.46Z" transform="translate(-200.19 -249.13)" fill="#f07056"/></svg>