<svg id="svg205493" xmlns="http://www.w3.org/2000/svg" viewBox="0 0 195.17 195.17"><circle cx="97.58" cy="97.58" r="97.58" fill="#b13a34"/><path d="M177.5,314.79l-47.38-50.17h65.8Z" transform="translate(-84.26 -179.6)" fill="#fff"/><path d="M201.54,211l46.11,1.65-46.11,44.05Z" transform="translate(-84.26 -179.6)" fill="#fff"/><path d="M197,215.81c0,8.75.06,17.5,0,26.25-.06,5.73-.32,11.45-.49,17.18-5.84.21-11.68.53-17.51.61-8,.11-15.9,0-25,0L196,215.35Z" transform="translate(-84.26 -179.6)" fill="#fff"/><path d="M126.85,259.87c0-11.09,0-21.62.07-32.14,0-.79,1-2.18,1.68-2.23,3.61-.3,7.13-.93,10.13,2.58,6.13,7.19,12.72,14,19.46,21.34-3.21,3.27-6.31,6.5-9.52,9.63a3.49,3.49,0,0,1-2.22.78C140.15,259.89,133.85,259.87,126.85,259.87Z" transform="translate(-84.26 -179.6)" fill="#fff"/><path d="M196.81,343.33c-7-3.86-13.39-7.35-19.69-11.06-.56-.33-.61-2.27-.27-3.23q9.57-26.34,19.3-52.63h.66v66.91" transform="translate(-84.26 -179.6)" fill="#fff"/><path d="M250.82,222.14l-15,8.86-.5-.6c3.25-3.18,6.31-6.61,9.86-9.41,1.14-.9,3.6-.14,5.45-.14Z" transform="translate(-84.26 -179.6)" fill="#fff"/><path d="M122.21,228.12v8.47h-9.34C116.18,233.6,118.93,231.1,122.21,228.12Z" transform="translate(-84.26 -179.6)" fill="#fff"/></svg>