<svg id="svg205493" xmlns="http://www.w3.org/2000/svg" viewBox="0 0 356.96 288.54"><g id="title"><path id="path205502" d="M378.57,415.48a41,41,0,0,0,33.87-18l-13.38-9.06a24.77,24.77,0,0,1-45.3-13.9,24.77,24.77,0,0,1,24.81-24.71,24.8,24.8,0,0,1,20.59,11l13.39-9.06a40.89,40.89,0,0,0-34-18.12,40.22,40.22,0,0,0-16,3.19,41.23,41.23,0,0,0-13,8.75,40.58,40.58,0,0,0-8.75,44.89,41.63,41.63,0,0,0,21.72,21.83,42,42,0,0,0,16,3.19Z" transform="translate(-337.59 -146.61)" fill="#b13a34"/><path id="path205504" d="M429.7,414.76h0V389.43a18,18,0,0,1,18-18V356A33.33,33.33,0,0,0,424,365.86a32.63,32.63,0,0,0-9.78,23.57v25.33Z" transform="translate(-337.59 -146.61)" fill="#b84c46"/><path id="path205506" d="M475.3,415.48a29.2,29.2,0,0,0,20.8-8.54,31.91,31.91,0,0,0,6.28-9.37,29.1,29.1,0,0,0,2.26-11.43,28.75,28.75,0,0,0-2.26-11.43,30.66,30.66,0,0,0-6.28-9.37,32.11,32.11,0,0,0-9.37-6.28,30,30,0,0,0-22.86,0,29.12,29.12,0,0,0-15.65,15.65A30.6,30.6,0,0,0,446,386.14a31,31,0,0,0,2.26,11.43,29.12,29.12,0,0,0,15.65,15.65A31,31,0,0,0,475.3,415.48Zm0-43.24a13.9,13.9,0,1,1-13.9,13.9A14,14,0,0,1,475.3,372.24Z" transform="translate(-337.59 -146.61)" fill="#c05f58"/><path id="path205508" d="M566.19,374.81a29.2,29.2,0,0,0-15.65-15.65,28.75,28.75,0,0,0-11.43-2.26,29.1,29.1,0,0,0-11.43,2.26,31.94,31.94,0,0,0-9.37,6.29,29.15,29.15,0,0,0-8.54,20.79V430l15.44,5.15V412.09a27.06,27.06,0,0,0,2.47,1.13,28.75,28.75,0,0,0,22.86,0,28.29,28.29,0,0,0,9.37-6.28,30.39,30.39,0,0,0,6.28-9.27,30,30,0,0,0,0-22.86Zm-27.08,25.33a13.9,13.9,0,1,1,13.9-13.9A14,14,0,0,1,539.11,400.14Z" transform="translate(-337.59 -146.61)" fill="#c7716a"/><path id="path205510" d="M629.33,374.81a29.2,29.2,0,0,0-15.65-15.65,28.72,28.72,0,0,0-11.43-2.26,29.14,29.14,0,0,0-11.43,2.26,31.9,31.9,0,0,0-9.36,6.29,29.11,29.11,0,0,0-8.55,20.79V430l15.44,5.15V412.09c.83.41,1.65.82,2.47,1.13a28.75,28.75,0,0,0,22.86,0,28.29,28.29,0,0,0,9.37-6.28,30,30,0,0,0,6.28-9.27,29.91,29.91,0,0,0,0-22.86Zm-27.08,25.33a13.9,13.9,0,1,1,13.9-13.9A14,14,0,0,1,602.25,400.14Z" transform="translate(-337.59 -146.61)" fill="#ce837b"/><path id="path205512" d="M637.08,414.76h15.55v-59.4l-15.55,5.14Z" transform="translate(-337.59 -146.61)" fill="#d6968d"/><path id="path205514" d="M694.55,371.83V357.41H678.18V339l-15.45,5.15v39.95a31.51,31.51,0,0,0,2.48,12.36,32.33,32.33,0,0,0,16.88,17,32,32,0,0,0,12.46,2.48V400.45a16.35,16.35,0,0,1-16.37-16.37V371.83Z" transform="translate(-337.59 -146.61)" fill="#dda89f"/></g><path d="M511,268.79l-55.81-59.08h77.49C525.4,229.43,518.31,248.75,511,268.79Z" transform="translate(-337.59 -146.61)" fill="#b84c46"/><path d="M539.26,146.61l54.3,1.93-54.3,51.88Z" transform="translate(-337.59 -146.61)" fill="#c05f58"/><path d="M534,152.23c0,10.3.07,20.6,0,30.91-.07,6.74-.38,13.48-.58,20.22-6.87.26-13.75.64-20.62.73-9.36.13-18.73,0-29.4,0l49.36-52.44Z" transform="translate(-337.59 -146.61)" fill="#b84c46"/><path d="M451.3,204.11c0-13.05,0-25.45.09-37.85,0-.93,1.22-2.57,2-2.63,4.25-.34,8.4-1.09,11.92,3.05,7.22,8.47,15,16.48,22.92,25.12-3.78,3.85-7.43,7.66-11.21,11.34a4.09,4.09,0,0,1-2.61.93C467,204.14,459.55,204.11,451.3,204.11Z" transform="translate(-337.59 -146.61)" fill="#b13a34"/><path d="M533.69,302.4c-8.2-4.55-15.77-8.66-23.19-13-.65-.38-.72-2.67-.31-3.8q11.27-31,22.72-62h.78v78.8" transform="translate(-337.59 -146.61)" fill="#c05f58"/><path d="M597.3,159.68l-17.62,10.43-.59-.71c3.83-3.75,7.43-7.78,11.61-11.08,1.35-1.06,4.24-.17,6.42-.17Z" transform="translate(-337.59 -146.61)" fill="#c7716a"/><path d="M445.84,166.72v10h-11Z" transform="translate(-337.59 -146.61)" fill="#b13a34"/></svg>