<svg id="svg429946" xmlns="http://www.w3.org/2000/svg" viewBox="0 0 435.18 109.09"><g id="path429955"><path d="M315.24,394.3h25.61v18.52H294.4V329.47h20.84v.16h25.61v18.52H315.24Z" transform="translate(-294.4 -329.47)" fill="#020a4b"/><path d="M319.94,371.22a10.91,10.91,0,1,1,10.91,11.25A11.09,11.09,0,0,1,319.94,371.22Z" transform="translate(-294.4 -329.47)" fill="#ff5221"/></g><g id="path429957"><path d="M427.56,412.89H406.72l-12.79-16-12.79,16h-22l23.79-29.75-21.48-26.86H382.3l11.05,13.83,11.06-13.83h22l-22,27.58Z" transform="translate(-294.4 -329.47)" fill="#020a4b"/></g><g id="path429959"><path d="M510.58,384.82c0,16.69-12.21,30.22-27.26,30.22a25.57,25.57,0,0,1-17.42-7v30.5H446.22V356.37H465.9v5.21a25.57,25.57,0,0,1,17.42-7C498.37,354.6,510.58,368.13,510.58,384.82Zm-20.22,0a12.75,12.75,0,0,0-12.47-13c-6.89,0-12,5.83-12,13s5.1,13,12,13A12.75,12.75,0,0,0,490.36,384.82Z" transform="translate(-294.4 -329.47)" fill="#020a4b"/></g><g id="path429961"><path d="M531.65,412.91v-56.6h19.68v56.6Z" transform="translate(-294.4 -329.47)" fill="#020a4b"/><path d="M555.34,367.54a10.91,10.91,0,1,1,10.9,11.25A11.08,11.08,0,0,1,555.34,367.54Z" transform="translate(-294.4 -329.47)" fill="#ff5221"/></g><g id="path429963"><path d="M660.24,384.64c0,16.79-13.08,30.55-33.12,30.55S594,401.43,594,384.64s13.08-30.4,33.11-30.4S660.24,367.85,660.24,384.64Zm-20.54.07c0-7.26-5.63-13.15-12.58-13.15s-12.57,5.89-12.57,13.15,5.63,13.15,12.57,13.15S639.7,392,639.7,384.71Z" transform="translate(-294.4 -329.47)" fill="#020a4b"/></g><g id="path429965"><path d="M714,398.69V415c-11.52,0-29.6-2.43-29.6-22.13V373.67h-6.21V356.32h6.21v-17H704v50.1C704,392.81,705.86,398.69,714,398.69Z" transform="translate(-294.4 -329.47)" fill="#020a4b"/><path d="M707.77,367.55a10.91,10.91,0,1,1,10.91,11.26A11.08,11.08,0,0,1,707.77,367.55Z" transform="translate(-294.4 -329.47)" fill="#ff5221"/></g></svg>